<svg width="274" height="212" viewBox="0 0 274 212" fill="none" xmlns="http://www.w3.org/2000/svg">
<path d="M35.9744 211.963H1.10739C0.493579 211.963 0 211.469 0 210.856V210.248C0 209.634 0.493579 209.141 1.10739 209.141H35.9744C36.5882 209.141 37.0818 209.634 37.0818 210.248V210.856C37.0881 211.469 36.5882 211.963 35.9744 211.963Z" fill="#ADBEC4"/>
<path d="M267.052 211.963H232.185C231.571 211.963 231.078 211.469 231.078 210.856V210.248C231.078 209.634 231.571 209.141 232.185 209.141H267.052C267.666 209.141 268.16 209.634 268.16 210.248V210.856C268.16 211.469 267.66 211.963 267.052 211.963Z" fill="#ADBEC4"/>
<path d="M84.4972 211.963H49.6302C49.0163 211.963 48.5228 211.469 48.5228 210.856V210.248C48.5228 209.634 49.0163 209.141 49.6302 209.141H84.4972C85.111 209.141 85.6046 209.634 85.6046 210.248V210.856C85.6046 211.469 85.111 211.963 84.4972 211.963Z" fill="#ADBEC4"/>
<path d="M150.257 211.963H93.8625C93.2487 211.963 92.7551 211.469 92.7551 210.856V210.248C92.7551 209.634 93.2487 209.141 93.8625 209.141H150.257C150.871 209.141 151.365 209.634 151.365 210.248V210.856C151.371 211.469 150.871 211.963 150.257 211.963Z" fill="#ADBEC4"/>
<path d="M213.594 211.963H159.098C158.484 211.963 157.99 211.469 157.99 210.856V210.248C157.99 209.634 158.484 209.141 159.098 209.141H213.594C214.208 209.141 214.701 209.634 214.701 210.248V210.856C214.708 211.469 214.208 211.963 213.594 211.963Z" fill="#ADBEC4"/>
<path d="M16.7438 166.06C16.7438 166.06 26.2611 191.397 26.8369 199.383C26.8369 199.383 29.2226 201.281 33.2851 199.598C33.2851 199.598 33.399 175.381 29.4187 167.895C25.4321 160.416 16.7438 166.06 16.7438 166.06Z" fill="#FF8B66"/>
<path d="M14.6619 210.527H34.6836C35.5315 207.363 34.2406 204.686 34.2406 204.686C34.2406 204.686 35.1202 201.231 34.7785 200.085C34.4368 198.946 30.3363 197.573 29.2162 198.75C28.4442 199.554 28.4062 200.63 28.4569 201.218C27.8937 198.048 26.4572 197.782 25.0587 199.029C23.6033 200.326 25.3688 199.68 25.0904 201.743C25.0714 201.889 25.0271 202.028 24.9765 202.167C24.8626 202.452 24.6791 202.724 24.4323 202.965C24.2108 203.18 23.9387 203.382 23.6413 203.559C23.4831 203.654 23.3186 203.743 23.1414 203.825C22.8123 203.977 22.458 204.11 22.0783 204.218C21.4898 204.395 20.8443 204.515 20.1736 204.578C17.4336 204.831 16.3325 205.028 15.0732 206.445C13.814 207.856 14.6113 208.989 14.6113 208.989L14.6619 210.527Z" fill="#CFD8DC"/>
<path d="M24.9764 202.161C24.8625 202.446 24.679 202.718 24.4322 202.958C26.1724 202.237 27.2038 203.528 27.2038 203.528L27.7164 202.876C26.4698 201.332 25.0903 202.091 24.9764 202.161Z" fill="#ADBEC4"/>
<path d="M25.3878 204.996L26.0838 204.559C25.6915 203.42 24.9701 203.066 24.4322 202.958C24.2108 203.173 23.9386 203.376 23.6412 203.553C24.9828 203.806 25.3878 204.996 25.3878 204.996Z" fill="#ADBEC4"/>
<path d="M23.4515 205.755L24.1855 205.388C23.983 204.521 23.5654 204.059 23.1414 203.825C22.8124 203.977 22.458 204.11 22.0783 204.218C23.1984 204.673 23.4515 205.755 23.4515 205.755Z" fill="#ADBEC4"/>
<path d="M57.6034 205.724C58.1476 205.439 58.6539 204.806 59.1095 204.009C59.1095 204.009 59.5018 201.648 59.1095 199.168C58.7172 196.687 59.7992 194.662 63.3113 193.897C66.7284 193.156 68.7533 194.802 67.9623 201.667C68.4812 204.521 68.5888 207.774 67.4054 210.52H56.8947C56.8947 210.527 55.2368 206.97 57.6034 205.724Z" fill="#CFD8DC"/>
<path d="M48.3837 168.724C48.3837 168.724 48.3837 175.571 52.25 182.601C56.186 189.758 61.0522 199.573 61.0522 199.573C61.0522 199.573 64.2921 202.737 66.3551 197.497C66.3551 197.497 64.8996 179.26 61.5648 172.591C58.23 165.921 48.3837 168.724 48.3837 168.724Z" fill="#FF8B66"/>
<path d="M65.5957 200.218C65.5957 200.218 66.5702 198.231 65.7033 197.383C64.8363 196.529 63.8175 198.111 62.3368 197.763C60.856 197.409 60.5143 196.358 60.1283 197.795C59.7423 199.225 60.2106 203.73 65.5957 200.218Z" fill="#CFD8DC"/>
<path d="M60.0207 200.13C60.0207 200.13 63.9946 201.541 66.0576 200.13L65.5323 201.851C65.5323 201.851 61.2103 202.307 60.6155 201.218L60.0207 200.13Z" fill="#ADBEC4"/>
<path d="M60.0778 202.269C60.0778 202.269 63.7164 201.762 65.4756 202.667V203.522C65.4756 203.522 60.7296 202.414 59.1919 203.522L60.0778 202.269Z" fill="#ADBEC4"/>
<path d="M65.6463 205.293C65.6463 205.293 64.9375 203.572 62.7228 203.452C60.508 203.325 59.0146 204.547 59.0146 204.547C59.0146 204.547 62.5329 203.098 65.6463 205.293Z" fill="#ADBEC4"/>
<path d="M64.6275 166.914C64.6275 166.914 64.2668 167.781 63.4442 168.895C63.3492 169.028 63.2417 169.161 63.1278 169.3C60.9383 172.008 56.1227 175.622 47.3269 172.059C47.3269 172.059 47.1054 171.553 46.7953 170.755C46.7447 170.616 46.6877 170.471 46.6245 170.312C46.0803 168.882 45.3652 166.807 45.0425 165.029C42.7454 152.271 41.8912 143.026 40.6762 137.78C37.2971 145.931 29.7162 161.744 29.3808 162.422C28.9568 163.263 30.6464 168.705 30.6464 168.705C24.3184 170.768 15.2505 168.136 15.2505 168.136C15.2505 168.136 12.5041 160.099 12.0865 154.366C11.7638 149.974 22.825 125.371 28.0203 114.095C28.1532 113.798 28.2861 113.519 28.4063 113.241C29.7731 110.285 30.6464 108.444 30.6464 108.444L39.5055 111.437L61.0269 121.119C61.0269 121.119 61.4066 121.556 61.7609 125.991C61.7673 126.105 61.7862 126.232 61.7926 126.346C61.9951 128.985 62.1849 132.94 62.2988 138.863V139.23C62.3241 140.52 62.3431 141.906 62.3621 143.387V143.741C62.3874 147.146 62.3937 151.057 62.3747 155.562C62.3684 155.682 62.3684 155.802 62.3684 155.929C62.3621 157.327 62.3431 158.777 62.3304 160.289C62.3178 161.668 63.4062 164.276 64.0896 165.775C64.1466 165.902 64.2035 166.022 64.2478 166.13C64.4819 166.611 64.6275 166.914 64.6275 166.914Z" fill="#0C476B"/>
<path d="M63.4442 168.895C63.3493 169.028 63.2417 169.161 63.1278 169.3C62.147 167.629 60.6219 164.782 60.2676 162.833C59.755 160.036 59.5082 149.038 60.2612 137.464C60.9953 126.245 58.5274 115.24 58.5021 115.126L58.964 115.025C58.9893 115.133 61.4762 126.207 60.7358 137.496C59.9828 149.032 60.2233 159.979 60.7358 162.744C61.0712 164.548 62.4824 167.231 63.4442 168.895Z" fill="#0E3944"/>
<path d="M60.1094 124.795C53.2309 122.315 51.4781 116.677 51.4591 116.62L51.9147 116.487C51.9337 116.544 53.6233 121.954 60.2676 124.353L60.1094 124.795Z" fill="#0E3944"/>
<path d="M34.7343 112.19C34.5887 112.291 34.3293 112.31 33.7218 112.348C32.3866 112.431 29.9567 112.576 28.0203 114.095C28.1532 113.798 28.2861 113.519 28.4063 113.241C30.3047 112.076 32.4499 111.95 33.6902 111.874C34.0192 111.855 34.3926 111.83 34.4748 111.792L34.7343 112.19Z" fill="#0E3944"/>
<path d="M40.4674 137.888C35.4747 127.921 41.9418 114.513 42.0051 114.38L42.4291 114.589C42.3658 114.721 35.9999 127.915 40.8914 137.673L40.4674 137.888Z" fill="#0E3944"/>
<path d="M39.4866 128.156C39.0563 128.156 38.7463 128.061 38.7209 128.048L38.8665 127.599C38.8728 127.599 39.8094 127.89 40.6383 127.352C41.366 126.884 41.8153 125.935 41.9798 124.542C42.4734 120.334 45.6944 115.126 45.8336 114.911L46.2386 115.164C46.2069 115.215 42.9354 120.499 42.4544 124.599C42.2709 126.15 41.7457 127.213 40.8914 127.757C40.3979 128.073 39.8853 128.156 39.4866 128.156Z" fill="#0E3944"/>
<path d="M15.4023 18.2897C15.4023 18.2897 16.187 16.4926 19.4838 16.4862C22.0277 16.4862 23.0022 17.891 23.0022 17.891C24.5272 22.3396 26.1598 39.3808 26.7483 39.9819C27.0458 40.292 46.0359 54.7893 46.0359 54.7893C35.791 54.9792 35.3923 72.0014 35.3923 72.0014C35.0633 67.8502 20.7748 57.3965 17.1488 50.5686C13.7697 44.2217 12.1371 28.6549 15.4023 18.2897Z" fill="#F2A668"/>
<path d="M76.8405 79.114C75.2838 96.2881 69.0824 112.886 66.9309 119.803C66.4689 121.296 66.1905 122.131 66.1905 122.131C66.1905 122.131 32.5068 117.765 28.5202 108.666C28.5202 108.666 28.5835 108.419 28.6911 107.95C29.6972 103.812 34.671 87.0556 35.2405 73.3429C35.8733 58.0862 40.9863 52.6885 44.087 53.3845C44.087 53.3845 51.054 58.8899 55.5153 58.8709C59.9701 58.8582 70.6264 54.0173 70.6264 54.0173C70.6264 54.0173 78.7262 58.2318 76.8405 79.114Z" fill="#FFB878"/>
<path d="M55.5595 52.5999C56.6743 52.5999 57.5781 51.6961 57.5781 50.5813C57.5781 49.4664 56.6743 48.5627 55.5595 48.5627C54.4446 48.5627 53.5408 49.4664 53.5408 50.5813C53.5408 51.6961 54.4446 52.5999 55.5595 52.5999Z" fill="#F24052"/>
<path d="M97.1784 19.4984C97.1784 19.4984 96.3937 17.7012 93.0969 17.6949C90.553 17.6949 89.5785 19.0997 89.5785 19.0997C88.0535 23.5482 86.4209 40.5894 85.8324 41.1906C85.535 41.5006 66.5448 55.998 66.5448 55.998C66.0892 67.8945 77.1884 73.21 77.1884 73.21C77.5174 69.0589 91.806 58.6051 95.4319 51.7772C98.8047 45.424 100.444 29.8572 97.1784 19.4984Z" fill="#F2A668"/>
<path d="M51.2882 58.6241C51.2882 58.6241 49.4467 59.3581 49.067 60.1618C48.6874 60.9654 50.1048 64.2623 52.8258 64.5091C55.5469 64.7559 60.7105 61.6235 60.5017 60.6047C60.2865 59.5922 56.4201 58.2887 51.2882 58.6241Z" fill="#F2A668"/>
<path d="M51.0223 54.7957C51.0223 54.7957 52.0348 58.9785 50.4908 60.649C50.4908 60.649 53.022 64.7306 58.7361 60.6111C58.7361 60.6111 57.6477 57.8584 58.7361 56.0739L51.0223 54.7957Z" fill="#EF6E4B"/>
<path d="M67.165 43.418C67.165 42.4182 66.45 41.5829 65.5008 41.3994C65.8741 41.0261 66.1019 40.5135 66.1019 39.9503C66.1019 38.8303 65.2097 37.9254 64.096 37.9001C64.3048 37.5773 64.4314 37.1913 64.4314 36.78C64.4314 35.641 63.5075 34.7234 62.3748 34.7234C61.8875 34.7234 61.4446 34.9006 61.0965 35.179C61.0902 34.0463 60.1727 33.1351 59.04 33.1351C58.3186 33.1351 57.6921 33.5021 57.3251 34.0653C57.0466 33.2553 56.2873 32.6668 55.3824 32.6668C54.6167 32.6668 53.9586 33.0908 53.6042 33.711C53.2372 33.3566 52.7373 33.1351 52.1868 33.1351C51.1047 33.1351 50.2251 33.9767 50.1428 35.0398C49.8265 34.8373 49.4531 34.7234 49.0544 34.7234C47.9154 34.7234 46.9979 35.6473 46.9979 36.78C46.9979 36.9445 47.0232 37.1027 47.0611 37.2546C47.0422 37.2546 47.0232 37.2483 46.9979 37.2483C45.8588 37.2483 44.9413 38.1722 44.9413 39.3049C44.9413 39.8617 45.1627 40.3616 45.5171 40.7287C44.5742 40.9185 43.8592 41.7475 43.8592 42.7473C43.8592 43.6332 44.4224 44.3799 45.2007 44.671C44.6818 45.0443 44.3401 45.6518 44.3401 46.3352C44.3401 47.3793 45.1248 48.2399 46.1373 48.3665C46.6751 50.2775 47.9977 50.9483 47.9977 50.9483C48.9279 51.8089 56.5214 52.6695 60.1537 52.3658C60.527 52.7518 61.0522 52.9922 61.6281 52.9922C62.7671 52.9922 63.6847 52.0683 63.6847 50.9356C63.6847 50.9293 63.6847 50.923 63.6847 50.9167C64.7225 50.8091 65.5324 49.9422 65.5324 48.8791C65.5324 48.6892 65.5008 48.512 65.4502 48.3349C66.1905 48.0248 66.7094 47.2907 66.7094 46.4365C66.7094 45.9366 66.5259 45.4873 66.2348 45.1329C66.798 44.7659 67.165 44.1331 67.165 43.418Z" fill="#F24052"/>
<path d="M62.2166 47.2907C62.2166 47.2907 64.3681 45.1455 64.6275 47.6514C64.9312 50.5559 62.2925 51.7266 61.7799 50.8027C61.2674 49.8788 62.2166 47.2907 62.2166 47.2907Z" fill="#FF8B66"/>
<path d="M47.1623 47.4426C47.1623 47.4426 45.0108 45.2974 44.7514 47.8033C44.4476 50.7078 47.0864 51.8785 47.599 50.9546C48.1115 50.0307 47.1623 47.4426 47.1623 47.4426Z" fill="#FF8B66"/>
<path d="M54.914 57.8141C59.6853 57.8141 62.3747 54.7008 62.3747 45.3544C62.3747 40.5325 59.9194 37.5773 54.5787 37.5773C49.2379 37.5773 46.9851 40.5325 46.9851 45.3544C46.9914 55.3968 49.9909 57.8141 54.914 57.8141Z" fill="#FF8B66"/>
<path d="M48.5735 48.6892C48.4912 49.1701 48.9089 49.6447 49.51 49.746C50.1112 49.8536 50.6617 49.5498 50.744 49.0689C50.8263 48.588 50.4086 48.1134 49.8075 48.0121C49.2063 47.9046 48.6558 48.2083 48.5735 48.6892Z" fill="#DB614D"/>
<path d="M58.3818 48.9487C58.4135 49.4359 58.9324 49.7966 59.5398 49.7586C60.1473 49.7207 60.6156 49.2904 60.584 48.8095C60.5523 48.3222 60.0334 47.9615 59.4259 47.9995C58.8185 48.0374 58.3502 48.4614 58.3818 48.9487Z" fill="#DB614D"/>
<path d="M50.6743 43.6775C50.7376 43.6901 50.8008 43.6711 50.8578 43.6332C51.6171 43.051 52.7562 43.2535 52.7752 43.2598C52.9017 43.2788 53.0283 43.1965 53.0536 43.07C53.0789 42.9434 52.9903 42.8169 52.8637 42.7916C52.8131 42.7789 51.4969 42.5448 50.573 43.2598C50.4718 43.3421 50.4465 43.4876 50.5287 43.5952C50.5604 43.6395 50.611 43.6711 50.6743 43.6775Z" fill="#F24052"/>
<path d="M59.7992 43.7091C59.8562 43.7028 59.9131 43.6712 59.9511 43.6269C60.0334 43.5256 60.0207 43.3738 59.9195 43.2915C59.0146 42.5511 57.692 42.7473 57.6414 42.7536C57.5085 42.7726 57.4199 42.8928 57.4452 43.0257C57.4642 43.1586 57.5908 43.2409 57.7173 43.2219C57.7237 43.2219 58.888 43.051 59.6221 43.6522C59.6727 43.7028 59.736 43.7218 59.7992 43.7091Z" fill="#F24052"/>
<path d="M51.1679 46.3732C51.1679 46.968 51.4337 47.4426 51.7627 47.4426C52.0918 47.4426 52.3576 46.9617 52.3576 46.3732C52.3576 45.7784 52.0918 45.3038 51.7627 45.3038C51.4337 45.2974 51.1679 45.7784 51.1679 46.3732Z" fill="#1A4850"/>
<path d="M57.5339 46.3732C57.5339 46.968 57.7997 47.4426 58.1287 47.4426C58.4578 47.4426 58.7235 46.9617 58.7235 46.3732C58.7235 45.7784 58.4578 45.3038 58.1287 45.3038C57.7997 45.2974 57.5339 45.7784 57.5339 46.3732Z" fill="#1A4850"/>
<path d="M60.2613 39.8681C60.2613 39.8681 56.9454 39.6402 49.6556 39.115C49.6556 39.115 46.9915 41.893 47.1814 48.7209C47.1814 48.7209 42.9163 36.413 55.3697 36.413C67.8232 36.413 62.2166 48.4488 62.2166 48.4488C62.2166 48.4488 62.5773 42.1714 60.2613 39.8681Z" fill="#F24052"/>
<path d="M54.6166 49.5562L54.971 49.1955L54.0281 48.2589C54.9457 46.968 54.9394 43.9749 54.9394 43.842H54.4331C54.4331 43.8737 54.4394 47.0946 53.5029 48.1071L53.3384 48.2842L54.6166 49.5562Z" fill="#DB614D"/>
<path d="M57.7807 51.1128C57.7807 51.1128 53.0854 51.309 50.7187 50.6825C50.7187 50.6825 50.3011 54.0933 53.9397 54.2641C57.7807 54.4477 57.7807 51.1128 57.7807 51.1128Z" fill="#1A4850"/>
<path d="M19.8129 16.0369C19.8129 16.0369 16.2755 16.2015 16.2882 17.3342C16.3008 18.4669 16.3008 19.8337 19.256 19.6755C22.2111 19.5173 22.2428 18.3593 22.2808 17.2519C22.3187 16.1445 20.781 15.942 19.8129 16.0369Z" fill="#FFB878"/>
<path d="M93.9955 16.6824C93.9955 16.6824 90.4582 16.6634 90.4076 17.7898C90.3633 18.9225 90.2874 20.283 93.2488 20.283C96.204 20.283 96.2989 19.125 96.3938 18.0239C96.4888 16.9229 94.9637 16.6445 93.9955 16.6824Z" fill="#FFB878"/>
<path d="M14.2569 8.97497C14.7632 9.55081 15.5984 11.7909 15.5984 11.7909C15.9528 13.6766 16.1553 14.7144 16.8134 15.575C17.4652 16.442 17.1235 17.9607 17.1235 17.9607C17.1235 17.9607 19.68 19.2769 21.8315 17.6506C21.8315 17.6506 21.6037 16.1382 21.8315 15.7142C22.2744 14.86 23.6919 14.398 24.1792 12.6705C24.6664 10.9366 26.1155 9.00027 26.1155 9.00027C26.1155 9.00027 25.6979 8.10171 24.9448 8.64591C24.1791 9.20277 23.6919 10.5823 23.2806 10.7278C23.1983 10.7531 23.1097 10.7784 23.0275 10.7848C23.0275 10.7848 23.0211 10.7848 23.0085 10.7911C22.6921 10.8354 22.3694 10.7658 22.1732 10.5759C22.1605 10.5696 22.1352 10.557 22.1226 10.5316C21.4265 9.72166 21.2683 7.34868 21.2936 6.28559C21.3379 4.81117 21.2809 2.77357 20.3824 3.11528C19.4838 3.45699 20.3064 4.27962 19.6104 7.53219L19.275 7.57648C19.2117 7.81062 18.5916 5.60216 18.446 3.53292C18.3385 2.10913 17.4082 2.63435 17.1994 3.08364C16.9906 3.53292 17.307 4.95039 17.3703 5.98817C17.4209 6.67159 17.4779 7.38032 17.5095 7.79797L17.1172 8.01311C15.6997 5.53888 16.1806 4.51376 15.3517 4.46313C14.529 4.41251 14.8264 6.50073 15.2694 7.29173C15.4592 7.63344 15.6427 8.35482 15.7883 9.05723C14.3329 7.38032 14.4974 6.50073 13.8266 6.60831C13.1305 6.73487 13.7507 8.39912 14.2569 8.97497Z" fill="#FF8B66"/>
<path d="M20.5342 12.8477C21.0278 11.4935 22.7806 10.8734 23.0021 10.8037C22.6857 10.848 22.363 10.7784 22.1668 10.5886C20.4456 11.3543 20.5342 12.8477 20.5342 12.8477Z" fill="#EF6E4B"/>
<path d="M98.4441 9.44322C97.9379 10.0191 97.1026 12.2592 97.1026 12.2592C96.7482 14.1449 96.5457 15.1827 95.8876 16.0433C95.2358 16.9102 95.5775 18.4289 95.5775 18.4289C95.5775 18.4289 93.021 19.7451 90.8695 18.1188C90.8695 18.1188 91.0973 16.6065 90.8695 16.1825C90.4266 15.3282 89.0091 14.8663 88.5219 13.1387C88.0346 11.4049 86.5855 9.46853 86.5855 9.46853C86.5855 9.46853 87.0032 8.56996 87.7562 9.11417C88.5219 9.67103 89.0091 11.0505 89.4204 11.1961C89.5027 11.2214 89.5913 11.2467 89.6736 11.253C89.6736 11.253 89.6799 11.253 89.6925 11.2593C90.0089 11.3036 90.3317 11.234 90.5278 11.0442C90.5405 11.0379 90.5658 11.0252 90.5784 10.9999C91.2745 10.1899 91.4327 7.81694 91.4074 6.75384C91.3631 5.27943 91.4201 3.24183 92.3186 3.58354C93.2172 3.92525 92.3946 4.74788 93.0906 8.00045L93.426 8.04475C93.4893 8.27888 94.1094 6.07042 94.255 4.00118C94.3626 2.57739 95.2928 3.10262 95.5016 3.5519C95.7104 4.00118 95.394 5.41864 95.3307 6.45643C95.2801 7.13985 95.2232 7.84858 95.1915 8.26622L95.5839 8.48137C97.0013 6.00714 96.5204 4.98202 97.3494 4.93139C98.172 4.88077 97.8746 6.96899 97.4316 7.75998C97.2418 8.10169 97.0583 8.82308 96.9127 9.52548C98.3682 7.84858 98.2036 6.96899 98.8744 7.07657C99.5705 7.1968 98.9503 8.86105 98.4441 9.44322Z" fill="#FF8B66"/>
<path d="M92.1668 13.3096C91.6732 11.9554 89.9204 11.3353 89.6989 11.2657C90.0153 11.31 90.338 11.2403 90.5342 11.0505C92.2554 11.8225 92.1668 13.3096 92.1668 13.3096Z" fill="#EF6E4B"/>
<path d="M66.9245 119.796C66.4626 121.29 66.1842 122.125 66.1842 122.125C66.1842 122.125 32.5005 117.759 28.5139 108.659C28.5139 108.659 28.5771 108.412 28.6847 107.944C30.8299 111.494 56.6479 120.132 66.9245 119.796Z" fill="#F2A668"/>
<path d="M190.035 210.527H206.418C207.563 204.015 205.734 197.491 205.734 197.491L198.242 196.206C197.559 200.326 196.736 201.946 195.603 202.781C195.597 202.781 195.597 202.781 195.597 202.781C194.768 203.382 193.775 203.585 192.541 204.009C191.13 204.502 190.383 205.395 190.01 206.363C189.275 208.293 190.035 210.527 190.035 210.527Z" fill="#0E3944"/>
<path d="M190.016 206.363C194.053 206.869 202.931 207.73 202.387 205.395C201.938 203.439 198.192 202.914 195.61 202.781C195.603 202.781 195.603 202.781 195.603 202.781C194.774 203.382 193.781 203.585 192.547 204.009C191.13 204.502 190.389 205.395 190.016 206.363Z" fill="#205260"/>
<path d="M244.904 210.527H261.288C261.288 210.527 261.806 208.995 261.566 207.375C261.37 206.053 260.667 204.673 258.775 204.015C257.358 203.522 256.269 203.338 255.377 202.503C254.409 201.592 253.681 199.902 253.074 196.206L245.582 197.491C245.588 197.491 243.765 204.009 244.904 210.527Z" fill="#0E3944"/>
<path d="M261.572 207.369C261.376 206.046 260.674 204.667 258.782 204.009C257.364 203.515 256.276 203.332 255.384 202.496C253.308 203.136 250.41 204.306 249.511 206.084C248.258 208.527 257.832 208.141 261.572 207.369Z" fill="#205260"/>
<path d="M254.251 197.32C254.251 197.32 253.004 201.389 244.841 198.579C244.841 198.579 238.779 153.043 237.842 152.044C236.906 151.038 227.287 121.296 227.287 121.296H224.275C224.275 121.296 214.657 151.038 213.72 152.044C212.784 153.043 206.728 198.579 206.728 198.579C198.558 201.389 197.312 197.32 197.312 197.32L201.235 148.228L209.411 97.6106L225.781 99.4394L242.152 97.6106L244.284 110.83L244.373 111.349L250.327 148.228L254.251 197.32Z" fill="#8B383E"/>
<path d="M244.373 111.349C238.709 109.881 237.045 104.805 237.026 104.749L237.482 104.609C237.501 104.66 239.045 109.362 244.284 110.83L244.373 111.349Z" fill="#662C33"/>
<path d="M226.908 116.803C226.477 117.259 225.921 117.493 225.25 117.493C225.269 118.714 225.25 120.005 225.18 121.296H224.706C224.978 115.974 224.37 110.57 224.364 110.501L224.832 110.444C224.838 110.494 225.168 113.38 225.237 117.012C225.781 117.012 226.218 116.841 226.566 116.481C228.129 114.829 227.224 110.058 227.211 110.013L227.68 109.925C227.724 110.127 228.642 114.981 226.908 116.803Z" fill="#662C33"/>
<path d="M271.039 8.56999C270.286 8.72819 268.274 10.0128 268.274 10.0128C266.856 11.3037 266.072 12.0124 265.021 12.3035C263.977 12.6009 263.888 14.5056 263.888 14.5056C263.888 14.5056 259.883 16.2142 259.142 13.626C259.142 13.626 260.851 9.87354 260.927 9.39895C261.091 8.44976 260.231 7.22846 260.889 5.55788C261.547 3.88097 261.553 1.4637 261.553 1.4637C261.553 1.4637 262.427 0.995426 262.699 1.88767C262.977 2.79256 262.528 4.19104 262.775 4.55173C262.825 4.62767 262.882 4.69095 262.946 4.7479C262.946 4.7479 262.952 4.75423 262.958 4.76689C263.186 4.98837 263.483 5.12758 263.755 5.09594C263.768 5.09594 263.793 5.10227 263.819 5.08961C264.863 4.86181 266.42 3.06467 267.04 2.20406C267.894 1.00175 269.166 -0.592889 269.678 0.223417C270.191 1.03972 269.039 1.19792 267.634 4.21635L267.881 4.45049C267.793 4.67197 269.615 3.28614 270.982 1.72314C271.925 0.647387 272.355 1.63455 272.248 2.11547C272.146 2.60273 271.039 3.54559 270.362 4.33026C269.913 4.84282 269.438 5.37437 269.16 5.69077L269.343 6.10209C271.963 4.98204 272.197 3.87464 272.887 4.33026C273.57 4.78587 272.077 6.27294 271.248 6.63996C270.887 6.79816 270.311 7.2601 269.773 7.73469C271.944 7.27275 272.349 6.47543 272.817 6.95636C273.285 7.45627 271.786 8.41179 271.039 8.56999Z" fill="#FF8B66"/>
<path d="M263.692 7.87392C264.116 6.49443 263.085 4.94408 262.958 4.75424C263.186 4.97572 263.483 5.11494 263.755 5.0833C264.66 6.74122 263.692 7.87392 263.692 7.87392Z" fill="#EF6E4B"/>
<path d="M148.042 31.9897C148.795 31.8569 151.143 32.3125 151.143 32.3125C152.934 32.9959 153.927 33.3629 155.01 33.249C156.085 33.1414 156.87 34.8816 156.87 34.8816C156.87 34.8816 161.224 35.0019 160.958 32.3188C160.958 32.3188 157.99 29.4586 157.743 29.0409C157.243 28.2183 157.591 26.7692 156.37 25.453C155.142 24.1368 154.25 21.8903 154.25 21.8903C154.25 21.8903 153.269 21.7764 153.339 22.7066C153.415 23.6495 154.345 24.7822 154.244 25.2125C154.225 25.3011 154.2 25.3834 154.162 25.4593C154.162 25.4593 154.155 25.4656 154.155 25.4783C154.029 25.7694 153.801 26.0098 153.535 26.0794C153.522 26.0858 153.497 26.0984 153.472 26.0984C152.421 26.2693 150.308 25.1745 149.416 24.5987C148.175 23.795 146.41 22.7826 146.233 23.7254C146.055 24.6746 147.188 24.3962 149.605 26.6869L149.466 26.997C149.631 27.1742 147.429 26.5477 145.581 25.5985C144.309 24.9467 144.271 26.0162 144.549 26.4275C144.822 26.8388 146.201 27.3134 147.112 27.7943C147.72 28.1044 148.353 28.4271 148.732 28.6169L148.713 29.0662C145.866 28.9903 145.239 28.0411 144.765 28.7245C144.296 29.4016 146.226 30.2369 147.138 30.2685C147.53 30.2875 148.239 30.5027 148.916 30.7431C146.726 31.1102 146.062 30.5153 145.802 31.1418C145.549 31.7809 147.289 32.1226 148.042 31.9897Z" fill="#FF8B66"/>
<path d="M154.624 28.6486C153.725 27.5222 154.111 25.6997 154.162 25.4783C154.035 25.7694 153.807 26.0098 153.541 26.0794C153.301 27.9462 154.624 28.6486 154.624 28.6486Z" fill="#EF6E4B"/>
<path d="M264.964 15.3219C264.964 15.3219 264.528 16.9229 263.819 19.3402C263.534 20.3273 263.199 21.4474 262.832 22.656C262.262 24.5228 261.61 26.5857 260.921 28.6359C260.547 29.756 260.161 30.8697 259.769 31.9454C258.775 34.6854 257.75 37.204 256.801 38.9695C256.668 39.2163 256.535 39.4504 256.409 39.6655C256.048 40.273 255.504 40.9754 254.82 41.7538C253.726 43.013 252.264 44.4621 250.606 45.9808C249.777 46.7465 248.897 47.5312 247.993 48.3159C246.512 49.6004 244.961 50.904 243.424 52.1569C242.462 52.9479 241.506 53.7199 240.583 54.454C235.843 58.2318 231.92 61.1363 231.92 61.1363L224.845 46.6832C226.864 45.3164 230.584 43.0257 234.476 40.6843C235.394 40.1275 236.317 39.5706 237.235 39.0201C238.659 38.1721 240.057 37.3432 241.348 36.5712C242.361 35.9764 243.31 35.4132 244.164 34.9132C245.373 34.1982 246.392 33.6034 247.119 33.1731C247.904 32.7111 248.36 32.4454 248.36 32.4454C248.36 32.4454 248.682 31.8189 249.22 30.7748C249.847 29.5535 250.777 27.7563 251.84 25.7251C252.308 24.8265 252.802 23.8773 253.314 22.9155C254.118 21.3841 254.96 19.8084 255.77 18.3024C256.295 17.3279 256.814 16.3787 257.295 15.4991C258.655 13.0438 259.794 11.0822 260.383 10.2975C260.383 10.2975 264.009 11.5251 264.964 15.3219Z" fill="#CFD8DC"/>
<path d="M243.424 52.1569C242.462 52.9479 241.506 53.7199 240.582 54.454C239.747 47.9172 236.577 43.1839 234.476 40.6844C235.393 40.1275 236.317 39.5706 237.235 39.0201C239.386 41.6525 242.253 46.1074 243.424 52.1569Z" fill="#8BBDDB"/>
<path d="M250.606 45.9809C249.777 46.7465 248.897 47.5312 247.992 48.3159C246.341 42.0512 243.303 38.3873 241.348 36.5712C242.361 35.9764 243.31 35.4132 244.164 34.9133C246.24 37.0205 248.904 40.5641 250.606 45.9809Z" fill="#8BBDDB"/>
<path d="M256.801 38.9695C256.668 39.2163 256.535 39.4504 256.409 39.6656C256.048 40.273 255.504 40.9754 254.82 41.7538C252.093 37.4191 249.144 34.7044 247.119 33.1731C247.904 32.7111 248.359 32.4454 248.359 32.4454C248.359 32.4454 248.682 31.8189 249.22 30.7748C251.315 32.3758 254.118 34.9892 256.801 38.9695Z" fill="#8BBDDB"/>
<path d="M260.921 28.6359C260.547 29.756 260.161 30.8697 259.769 31.9455C257.06 29.1422 253.922 26.997 251.84 25.7251C252.308 24.8265 252.802 23.8773 253.314 22.9155C255.289 24.1051 258.193 26.0541 260.921 28.6359Z" fill="#8BBDDB"/>
<path d="M263.819 19.3402C263.534 20.3273 263.198 21.4474 262.831 22.656C260.408 20.4539 257.598 19.0554 255.769 18.3024C256.295 17.3279 256.814 16.3787 257.295 15.4991C259.073 16.2584 261.503 17.4987 263.819 19.3402Z" fill="#8BBDDB"/>
<path d="M205.19 50.4294L203.925 66.4708C203.925 66.4708 199.489 65.2874 193.933 63.5979C192.863 63.2751 191.756 62.9334 190.636 62.5791C188.655 61.9526 186.624 61.2818 184.662 60.5921C183.593 60.2187 182.549 59.8454 181.543 59.4594C179.182 58.5735 177.063 57.6812 175.436 56.8333C174.544 56.3713 173.804 55.9284 173.253 55.5044C173.07 55.3652 172.88 55.207 172.677 55.0298C171.348 53.9034 169.735 52.2076 168.033 50.2775C167.33 49.4676 166.609 48.6259 165.881 47.759C164.457 46.0441 163.034 44.2596 161.73 42.5827C161.028 41.6905 160.369 40.8299 159.756 40.0262C157.516 37.0774 155.959 34.9196 155.959 34.9196C156.117 31.1798 158.895 30.1167 158.895 30.1167C159.882 30.7242 162.186 32.5403 164.869 34.7297C165.666 35.3815 166.501 36.0649 167.343 36.761C168.767 37.938 170.216 39.153 171.564 40.292C172.424 41.0134 173.241 41.7032 173.994 42.3359C175.221 43.3801 176.265 44.2723 176.993 44.8924C177.689 45.4809 178.094 45.829 178.094 45.829C178.094 45.829 178.777 45.9366 179.942 46.1137C180.967 46.2719 182.372 46.4934 183.992 46.7529C184.985 46.9047 186.055 47.0756 187.181 47.2591C188.567 47.4869 190.029 47.721 191.509 47.9678C192.56 48.1387 193.617 48.3159 194.661 48.4867C198.913 49.2081 202.925 49.9232 205.19 50.4294Z" fill="#CFD8DC"/>
<path d="M193.933 63.5979C192.863 63.2752 191.756 62.9334 190.636 62.5791C190.047 56.3777 190.724 51.3533 191.509 47.9678C192.56 48.1387 193.616 48.3159 194.66 48.4867C193.869 51.8279 193.135 57.0864 193.933 63.5979Z" fill="#8BBDDB"/>
<path d="M187.181 47.2591C186.188 50.0371 184.865 54.7577 184.662 60.5921C183.593 60.2188 182.549 59.8454 181.543 59.4594C181.84 54.0427 183.005 49.6258 183.992 46.7529C184.992 46.9047 186.055 47.0756 187.181 47.2591Z" fill="#8BBDDB"/>
<path d="M179.948 46.1138C178.41 49.0246 176.569 52.9479 175.443 56.8333C174.55 56.3714 173.81 55.9284 173.259 55.5044C173.076 55.3652 172.886 55.207 172.684 55.0298C173.854 51.3027 175.544 47.6768 176.999 44.8925C177.695 45.481 178.1 45.829 178.1 45.829C178.1 45.829 178.777 45.9366 179.948 46.1138Z" fill="#8BBDDB"/>
<path d="M173.993 42.336C172.215 44.3799 169.899 47.2465 168.032 50.2775C167.33 49.4676 166.609 48.6259 165.881 47.759C167.741 44.8735 169.874 42.2284 171.563 40.292C172.424 41.0134 173.24 41.7032 173.993 42.336Z" fill="#8BBDDB"/>
<path d="M167.349 36.761C165.685 38.2797 163.552 40.3679 161.736 42.5827C161.034 41.6905 160.376 40.8299 159.762 40.0262C161.458 38.0139 163.325 36.1599 164.875 34.7297C165.672 35.3815 166.501 36.0649 167.349 36.761Z" fill="#8BBDDB"/>
<path d="M247.556 101.445C247.556 101.445 238.703 110.703 226.661 112.994C216.1 115.006 206.608 115.031 206.608 115.031C206.608 115.031 206.07 112.621 205.241 108.836C205.032 107.862 204.798 106.792 204.551 105.653C204.108 103.61 203.615 101.325 203.102 98.9078C202.881 97.8764 202.659 96.8259 202.432 95.7502C202.014 93.7822 201.59 91.7573 201.166 89.726C200.951 88.6819 200.736 87.6314 200.527 86.5873C200.002 84.0118 199.489 81.4617 199.021 79.0444C198.806 77.9497 198.603 76.8866 198.413 75.8551C197.863 72.9569 197.401 70.3371 197.065 68.2046C196.869 66.939 196.717 65.8443 196.622 64.9647C196.591 64.6483 196.566 64.3572 196.547 64.0978C196.388 61.902 196.306 59.8644 196.281 58.0356C196.262 56.8459 196.268 55.7512 196.281 54.764C196.338 51.2773 196.547 49.1448 196.547 49.1448C199.046 47.4363 216.277 52.9669 216.277 52.9669C216.277 52.9669 229.003 42.0132 230.996 42.8042C232.122 43.2472 233.192 44.2533 234.211 45.6961C234.786 46.5124 235.343 47.4679 235.881 48.5437C236.792 50.3471 237.647 52.4733 238.457 54.8336C238.824 55.9221 239.184 57.0611 239.539 58.2381C240.121 60.1808 240.665 62.2247 241.19 64.3256C241.45 65.3887 241.709 66.4708 241.956 67.5592C242.424 69.6094 242.867 71.6913 243.272 73.7669C243.494 74.8679 243.702 75.9627 243.905 77.0511C244.253 78.9242 244.582 80.7719 244.879 82.5564C245.076 83.7081 245.259 84.8408 245.43 85.9355C245.816 88.3718 246.151 90.6435 246.436 92.6558C246.607 93.8898 246.759 95.0225 246.892 96.0413C247.328 99.3888 247.556 101.445 247.556 101.445Z" fill="#CFD8DC"/>
<path d="M235.874 48.5437C232.027 52.467 225.25 58.2444 217.454 59.8011C215.891 60.1111 214.151 60.2504 212.303 60.2504C207.24 60.2504 201.4 59.2316 196.274 58.0356C196.255 56.8459 196.261 55.7512 196.274 54.764C203.096 56.4093 211.335 57.7951 216.834 56.7004C224.18 55.2386 230.768 49.303 234.204 45.6961C234.78 46.5124 235.337 47.4679 235.874 48.5437Z" fill="#8BBDDB"/>
<path d="M239.532 58.2381C235.602 61.9209 225.737 68.8058 206.994 68.8058C203.925 68.8058 200.615 68.6223 197.059 68.2046C196.863 66.939 196.711 65.8443 196.616 64.9647C223.921 68.3502 235.792 57.7002 238.45 54.8336C238.817 55.9221 239.178 57.0611 239.532 58.2381Z" fill="#8BBDDB"/>
<path d="M241.949 67.5591C234.343 71.8432 218.795 79.0634 200.438 79.0634C199.963 79.0634 199.489 79.057 199.014 79.0444C198.799 77.9496 198.596 76.8865 198.407 75.8551C217.454 76.4056 233.951 68.4514 241.184 64.3256C241.443 65.3887 241.702 66.4707 241.949 67.5591Z" fill="#8BBDDB"/>
<path d="M243.898 77.0511C237.304 80.6517 220.51 88.7388 201.159 89.726C200.944 88.6819 200.729 87.6314 200.52 86.5873C220.206 85.6698 237.634 76.8929 243.265 73.7669C243.487 74.8679 243.696 75.9627 243.898 77.0511Z" fill="#8BBDDB"/>
<path d="M245.423 85.9355C237.874 90.3588 221.434 98.5851 203.096 98.9078C202.874 97.8764 202.653 96.8259 202.425 95.7502C221.035 95.5856 238.102 86.6126 244.873 82.5564C245.069 83.7081 245.252 84.8408 245.423 85.9355Z" fill="#8BBDDB"/>
<path d="M246.885 96.0413C239.108 100.376 221.915 108.855 206.354 108.855C205.981 108.855 205.608 108.849 205.234 108.836C205.026 107.862 204.791 106.792 204.545 105.653C220.402 106.394 239.266 96.712 246.429 92.6558C246.607 93.8898 246.752 95.0225 246.885 96.0413Z" fill="#8BBDDB"/>
<path d="M218.631 46.5504C218.631 46.5504 218.112 50.8407 219.7 52.1569C219.7 52.1569 218.897 55.2133 216.524 55.7955C213.777 56.4663 212.227 53.5807 212.227 53.5807C212.227 53.5807 212.948 49.3916 211.221 48.2969L218.631 46.5504Z" fill="#EF6E4B"/>
<path d="M220.713 37.4571C220.713 37.4571 222.39 34.6158 218.378 30.1167C218.378 30.1167 216.479 25.8073 209.943 24.8138C203.406 23.8204 198.552 30.9583 198.552 34.8753C198.552 38.7986 200.875 34.8753 200.875 34.8753C200.875 34.8753 201.4 37.6216 202.14 38.8429C202.14 38.8429 201.9 42.7916 204.393 42.7979C206.88 42.8105 220.713 37.4571 220.713 37.4571Z" fill="#105E99"/>
<path d="M205.703 42.1967C205.703 42.1967 203.102 40.9058 203.627 43.2598C204.235 45.9872 206.981 46.2466 207.164 45.2531C207.348 44.2533 205.703 42.1967 205.703 42.1967Z" fill="#FF8B66"/>
<path d="M219.39 37.7608C219.39 37.7608 220.687 35.16 221.687 37.3558C222.845 39.8933 220.814 41.7601 220.061 41.0767C219.314 40.3933 219.39 37.7608 219.39 37.7608Z" fill="#FF8B66"/>
<path d="M215.511 49.5182C211.189 50.9673 207.804 48.9613 204.962 40.4945C203.501 36.1282 204.823 32.7048 209.664 31.0785C214.505 29.4522 217.441 31.4519 218.909 35.8182C221.959 44.9178 219.979 48.0184 215.511 49.5182Z" fill="#FF8B66"/>
<path d="M218.492 39.3175C218.713 39.7288 218.479 40.2857 217.966 40.5578C217.454 40.8362 216.859 40.7287 216.637 40.3173C216.416 39.906 216.65 39.3492 217.163 39.0771C217.675 38.7986 218.27 38.9062 218.492 39.3175Z" fill="#DB614D"/>
<path d="M209.683 42.5321C209.803 42.9814 209.443 43.4686 208.879 43.6142C208.316 43.7597 207.766 43.5193 207.645 43.07C207.525 42.6207 207.886 42.1334 208.449 41.9879C209.006 41.8424 209.563 42.0828 209.683 42.5321Z" fill="#DB614D"/>
<path d="M215.043 35.584C214.986 35.603 214.922 35.603 214.866 35.5714C214.056 35.1411 213.018 35.5207 212.999 35.5271C212.885 35.565 212.752 35.5081 212.708 35.3942C212.663 35.274 212.727 35.1474 212.841 35.1031C212.885 35.0841 214.087 34.6475 215.074 35.1727C215.188 35.2297 215.226 35.3689 215.169 35.4828C215.144 35.5271 215.093 35.565 215.043 35.584Z" fill="#FFB878"/>
<path d="M206.905 38.3114C206.854 38.3303 206.791 38.3303 206.734 38.305C206.62 38.2544 206.57 38.1152 206.627 38.0013C207.101 36.9888 208.323 36.6155 208.367 36.5965C208.487 36.5585 208.614 36.6281 208.652 36.7484C208.69 36.8686 208.614 36.9951 208.5 37.0331C208.493 37.0331 207.424 37.3685 207.038 38.1911C207.006 38.2544 206.962 38.2924 206.905 38.3114Z" fill="#FFB878"/>
<path d="M215.435 38.0013C215.612 38.5392 215.517 39.0517 215.22 39.153C214.923 39.2542 214.537 38.8999 214.353 38.362C214.176 37.8241 214.271 37.3115 214.568 37.2103C214.872 37.1154 215.258 37.4697 215.435 38.0013Z" fill="#1A4850"/>
<path d="M209.664 39.9377C209.841 40.4755 209.746 40.9881 209.449 41.0893C209.152 41.1906 208.766 40.8362 208.582 40.2984C208.405 39.7605 208.5 39.2479 208.797 39.1467C209.095 39.0454 209.487 39.3998 209.664 39.9377Z" fill="#1A4850"/>
<path d="M211.588 45.6834C211.588 45.6834 215.562 44.8988 217.207 43.2978C217.207 43.2978 216.966 46.2656 214.809 46.7275C212.651 47.1958 211.588 45.6834 211.588 45.6834Z" fill="#1A4850"/>
<path d="M214.258 43.2788C213.84 43.418 213.372 43.456 213.233 43.4623L213.208 42.9814C213.701 42.9561 214.442 42.7916 214.536 42.5574C214.568 42.4752 214.499 42.3359 214.34 42.1714C213.271 41.0514 212.012 37.7292 211.961 37.59L212.417 37.4191C212.429 37.4508 213.695 40.7856 214.695 41.836C214.998 42.1524 215.1 42.4562 214.992 42.7346C214.878 43.0004 214.581 43.1712 214.258 43.2788Z" fill="#DB614D"/>
<path d="M208.411 29.1485C198.748 32.7301 204.551 41.855 204.551 41.855L205.956 43.1269C205.329 40.5072 205.779 39.0644 205.779 39.0644C205.108 38.0393 205.038 36.1662 205.241 35.2866C206.468 34.2552 209.481 32.2998 215.043 31.705C215.087 31.7493 216.543 33.2364 216.694 34.6918C216.694 34.6918 218.915 36.723 219.865 39.1087L220.036 36.8686C220.029 36.8623 217.795 25.6681 208.411 29.1485Z" fill="#FFB878"/>
<path d="M207.304 198.314L203.045 199.307C203.045 199.307 196.388 163.63 194.857 159.859C193.54 156.606 187.915 144.165 186.048 134.61C185.96 134.654 185.377 134.553 184.586 134.401H184.58C184.384 134.357 184.175 134.313 183.954 134.268C183.757 134.224 183.549 134.18 183.34 134.136C183.182 143.659 181.112 155.404 180.48 158.694C179.714 162.687 180.125 199.003 180.125 199.003L175.753 198.858C167.457 169.452 171.836 158.403 171.836 158.403C171.836 158.403 164.229 131.933 166.925 122.6C167.817 119.486 168.918 116.664 169.981 114.291C170.07 114.095 170.152 113.905 170.247 113.722C172.272 109.305 174.114 106.565 174.114 106.565L183.004 107.678L183.087 107.533L183.346 107.583V110.374L184.472 110.317L184.726 110.298H184.732L188.421 110.102L188.927 110.077L192.155 109.906C192.155 109.906 194.091 112.988 196.85 117.942C196.951 118.132 197.059 118.322 197.16 118.512C198.141 120.29 199.217 122.29 200.343 124.46C204.804 133.098 203.279 157.891 203.279 157.891C203.279 157.891 209.727 167.857 207.304 198.314Z" fill="#8BBDDB"/>
<path d="M177.044 107.59C177.012 107.653 174.721 113.101 169.982 114.291C170.07 114.095 170.152 113.905 170.247 113.722C174.5 112.399 176.575 107.47 176.601 107.413L177.044 107.59Z" fill="#6097B2"/>
<path d="M197.16 118.512C191.851 117.373 189.142 111.817 188.421 110.102C188.295 109.792 188.231 109.608 188.225 109.596L188.674 109.438C188.681 109.45 188.763 109.691 188.927 110.077C189.687 111.836 192.174 116.702 196.85 117.942C196.951 118.132 197.059 118.322 197.16 118.512Z" fill="#6097B2"/>
<path d="M184.58 134.401C184.384 134.357 184.175 134.313 183.954 134.268C183.182 132.845 181.777 129.782 180.625 124.675C178.967 117.322 182.739 109.488 182.777 109.412L183.207 109.621C183.169 109.697 179.467 117.385 181.087 124.574C181.157 124.878 181.226 125.175 181.296 125.46C181.334 125.618 181.372 125.77 181.41 125.922C182.587 130.598 183.96 133.313 184.58 134.401Z" fill="#6097B2"/>
<path d="M181.169 125.947C181.144 125.947 181.125 125.947 181.1 125.947L181.131 125.473C181.384 125.485 181.676 125.346 181.91 125.08C182.226 124.72 182.897 123.587 182.353 120.796C181.625 117.05 184.397 110.488 184.517 110.21L184.953 110.393C184.928 110.463 182.118 117.101 182.821 120.701C183.384 123.587 182.713 124.878 182.264 125.39C181.954 125.745 181.555 125.947 181.169 125.947Z" fill="#6097B2"/>
<path d="M181.264 73.0202C181.264 73.0202 182.675 70.47 180.695 66.091C178.714 61.7121 179.119 49.6067 189.041 50.1256C189.041 50.1256 194.926 49.1511 197.894 53.0048C200.862 56.8586 203.273 70.451 200.166 80.5314C197.065 90.6119 177.278 87.9098 181.264 73.0202Z" fill="#F24052"/>
<path d="M192.161 109.906C192.161 109.906 182.878 113.177 174.12 106.565C174.12 106.565 172.494 73.1341 175.588 70.894C176.942 69.9131 179.613 70.6978 182.188 71.8938C185.51 73.4378 188.687 75.6589 188.687 75.6589C188.687 75.6589 194.452 74.8426 198.995 75.3425C201.887 75.6526 204.279 76.5005 204.387 78.4179C204.671 83.36 192.161 109.906 192.161 109.906Z" fill="#FF8B66"/>
<path d="M199.242 75.4185C197.293 75.216 196.932 76.6904 194.983 77.3991C193.028 78.1142 190.686 78.6647 189.801 78.747C188.915 78.8292 188.446 79.9303 188.446 79.9303C188.446 79.9303 188.13 78.4432 187.649 78.3167C187.181 78.1964 183.049 74.039 182.188 71.8938C185.51 73.4378 188.687 75.6589 188.687 75.6589C188.687 75.6589 194.452 74.8426 198.995 75.3425C199.153 75.3932 199.242 75.4185 199.242 75.4185Z" fill="#EF6E4B"/>
<path d="M173.791 202.566C174.057 200.744 173.386 199.453 173.86 198.573C174.595 197.219 175.373 198.934 175.373 198.934C175.436 196.871 178.898 196.871 179.246 197.82C179.34 198.073 179.442 198.301 179.556 198.516C179.771 198.016 180.138 197.535 180.606 197.82C182.454 198.927 180.157 201.788 181.84 203.87C183.985 206.521 182.663 210.527 182.663 210.527H172.405C171.203 204.901 173.525 204.376 173.791 202.566Z" fill="#CFD8DC"/>
<path d="M180.132 201.883C180.132 201.883 177.708 200.611 174.487 202.294L175.12 201.136C175.12 201.136 177.252 199.807 179.834 200.801L180.132 201.883Z" fill="#ADBEC4"/>
<path d="M180.556 203.813C180.556 203.813 177.1 202.61 173.886 204.3L174.493 203.072C174.493 203.072 177.55 201.75 180.138 202.737L180.556 203.813Z" fill="#ADBEC4"/>
<path d="M209.189 202.566C208.924 200.744 209.594 199.453 209.12 198.573C208.386 197.219 207.607 198.934 207.607 198.934C207.544 196.871 204.083 196.871 203.735 197.82C203.64 198.073 203.539 198.301 203.425 198.516C203.21 198.016 202.843 197.535 202.374 197.82C200.527 198.927 202.824 201.788 201.14 203.87C198.995 206.521 200.318 210.527 200.318 210.527H210.575C211.784 204.901 209.455 204.376 209.189 202.566Z" fill="#CFD8DC"/>
<path d="M202.849 201.883C202.849 201.883 205.272 200.611 208.493 202.294L207.861 201.136C207.861 201.136 205.728 199.807 203.146 200.801L202.849 201.883Z" fill="#ADBEC4"/>
<path d="M202.431 203.813C202.431 203.813 205.886 202.61 209.101 204.3L208.493 203.072C208.493 203.072 205.437 201.75 202.849 202.737L202.431 203.813Z" fill="#ADBEC4"/>
<path d="M187.94 64.5977C187.94 64.5977 188.68 73.5201 186.194 74.7983C186.194 74.7983 188.029 78.1838 192.946 76.1209C192.946 76.1209 192.117 71.5331 195.369 66.0784C197.552 62.4335 187.94 64.5977 187.94 64.5977Z" fill="#EF6E4B"/>
<path d="M196.907 61.5349C196.907 61.5349 198.755 59.3897 199.179 61.6994C199.672 64.3825 197.299 65.6544 196.755 64.8318C196.204 64.0092 196.907 61.5349 196.907 61.5349Z" fill="#FF8B66"/>
<path d="M182.916 62.7436C182.916 62.7436 180.764 60.9021 180.695 63.2498C180.612 65.9708 183.15 66.8757 183.568 65.9772C183.979 65.0849 182.916 62.7436 182.916 62.7436Z" fill="#FF8B66"/>
<path d="M190.857 71.8368C195.293 71.5015 197.578 68.4134 196.913 59.7188C196.571 55.2386 194.078 52.6568 189.111 53.0365C184.143 53.4162 182.258 56.327 182.599 60.8072C183.314 70.1536 186.276 72.1912 190.857 71.8368Z" fill="#FF8B66"/>
<path d="M184.308 63.8003C184.264 64.2496 184.688 64.6609 185.251 64.7179C185.814 64.7748 186.308 64.4521 186.352 63.9965C186.396 63.5472 185.972 63.1359 185.409 63.079C184.846 63.0283 184.352 63.3447 184.308 63.8003Z" fill="#DB614D"/>
<path d="M193.452 63.3447C193.515 63.794 194.021 64.0914 194.584 64.0155C195.148 63.9332 195.553 63.5093 195.489 63.06C195.426 62.6107 194.92 62.3133 194.357 62.3892C193.793 62.4715 193.388 62.8954 193.452 63.3447Z" fill="#DB614D"/>
<path d="M185.884 59.1177C185.972 59.162 186.086 59.1366 186.149 59.0544C186.713 58.3646 187.801 58.3077 187.807 58.3077C187.928 58.3013 188.022 58.2001 188.022 58.0735C188.016 57.9533 187.915 57.8584 187.788 57.8584C187.738 57.8584 186.491 57.928 185.801 58.7696C185.725 58.8645 185.738 59.0038 185.833 59.0797C185.852 59.0987 185.871 59.105 185.884 59.1177Z" fill="#F24052"/>
<path d="M192.313 57.9343C192.351 57.9533 192.389 57.9596 192.433 57.9533C192.446 57.9533 193.528 57.8457 194.186 58.4406C194.274 58.5228 194.42 58.5165 194.502 58.4216C194.584 58.333 194.578 58.1874 194.483 58.1052C193.673 57.3775 192.439 57.4977 192.382 57.504C192.262 57.5167 192.173 57.6243 192.186 57.7508C192.192 57.8394 192.243 57.9027 192.313 57.9343Z" fill="#F24052"/>
<path d="M186.561 61.459C186.605 62.0095 186.883 62.4398 187.193 62.4145C187.497 62.3892 187.712 61.9273 187.674 61.3767C187.63 60.8262 187.352 60.3959 187.042 60.4212C186.731 60.4402 186.516 60.9085 186.561 61.459Z" fill="#1A4850"/>
<path d="M192.686 60.9528C192.73 61.5033 193.009 61.9336 193.319 61.9083C193.623 61.883 193.838 61.421 193.8 60.8705C193.755 60.32 193.477 59.8897 193.167 59.915C192.857 59.934 192.642 60.4022 192.686 60.9528Z" fill="#1A4850"/>
<path d="M192.332 66.3948C192.332 66.3948 189.598 66.9896 188.117 66.3568C188.117 66.3568 189.079 68.3438 190.573 68.0401C192.072 67.7427 192.332 66.3948 192.332 66.3948Z" fill="#1A4850"/>
<path d="M188.029 61.073C188.029 61.073 187.522 59.7441 186.997 59.8833C186.472 60.0225 186.156 61.2122 186.156 61.2122L185.339 60.8578L186.137 60.9021C186.137 60.9021 186.453 59.6555 186.985 59.6176C187.725 59.5543 188.029 61.073 188.029 61.073Z" fill="#1A4850"/>
<path d="M192.351 60.9085C192.351 60.9085 192.654 59.5226 193.192 59.5796C193.73 59.6365 194.224 60.7692 194.224 60.7692L194.977 60.2946L194.198 60.4592C194.198 60.4592 193.699 59.2759 193.167 59.3138C192.42 59.3644 192.351 60.9085 192.351 60.9085Z" fill="#1A4850"/>
<path d="M189.927 64.2939C190.022 64.3382 190.136 64.3762 190.25 64.3952L190.338 63.9269C189.94 63.851 189.832 63.6168 189.813 63.427C189.788 63.1676 189.927 62.9081 190.073 62.8575C190.155 62.8258 190.25 62.8765 190.345 63.0094L190.724 62.7183C190.389 62.2816 190.035 62.3576 189.895 62.4145C189.541 62.5537 189.294 63.022 189.332 63.4776C189.377 63.8446 189.592 64.1357 189.927 64.2939Z" fill="#DB614D"/>
<path d="M190.712 54.4603C190.712 54.4603 192.351 53.9224 193.034 56.4283C194.217 60.7692 195.078 67.8249 197.888 71.3116C199.932 73.8428 201.172 72.8177 201.172 72.8177C201.172 72.8177 201.729 70.3118 200.855 67.8059C199.982 65.3001 201.09 56.2954 197.888 53.0112C194.686 49.7206 189.035 51.8279 189.035 51.8279C189.035 51.8279 186.314 50.2142 183.656 51.8279C180.998 53.4415 180.245 60.6933 182.96 63.9079C182.96 63.9079 182.821 61.1806 184.01 60.1175C185.2 59.048 185.865 53.1188 190.712 54.4603Z" fill="#F24052"/>
<path d="M169.893 18.8213C168.874 22.1055 171.38 23.5925 169.526 25.839C168.374 27.2311 166.634 26.0984 166.634 26.0984C165.792 24.3456 163.812 22.0295 162.774 21.0297C161.749 20.0236 162.477 20.0109 162.477 20.0109C162.375 19.9286 162.274 19.8527 162.173 19.7768C161.407 19.1946 160.749 18.8845 161.477 18.6631C162.293 18.4036 164.546 19.954 164.546 19.954C161.856 16.9672 160.844 17.2646 161.553 16.9608C162.521 16.5369 165.229 18.777 165.311 18.8402C164.014 16.7837 162.869 16.1002 163.609 16.0243C164.362 15.9547 167.121 19.2769 168.121 20.5108C168.349 20.7892 168.482 20.9664 168.482 20.9664C169.134 18.2264 169.893 18.8213 169.893 18.8213Z" fill="#FF8B66"/>
<path d="M168.115 20.5045C168.342 20.7829 168.475 20.9601 168.475 20.9601C168.475 20.9601 167.646 21.7891 168.07 23.2445C168.077 23.2445 166.925 21.9852 168.115 20.5045Z" fill="#EF6E4B"/>
<path d="M164.786 21.6878C164.539 21.4537 163.141 20.1185 162.476 20.0046C162.375 19.9223 162.274 19.8464 162.173 19.7704C162.749 19.3085 164.52 21.3714 164.786 21.6878Z" fill="#EF6E4B"/>
<path d="M169.52 25.8389C169.52 25.8389 169.153 47.5185 168.026 51.8215C168.026 51.8215 171.968 65.4393 177.872 70.3814C177.872 70.3814 178.79 74.0769 173.69 81.3414C173.69 81.3414 163.761 63.5852 162.166 53.4225L166.628 26.1047L169.52 25.8389Z" fill="#FF8B66"/>
<path d="M182.568 72.071C183.074 73.8681 183.352 80.1771 189.339 83.417C195.325 86.6569 201.729 81.9173 203.469 76.7473C203.469 76.7473 204.197 75.6463 206.563 78.3167C206.563 78.3167 219.01 84.3472 220.611 87.4795C222.212 90.6119 221.251 102.591 216.277 102.774C211.303 102.951 205.291 97.4144 203.709 101.053C202.127 104.692 192.876 117.689 173.69 107.235C173.69 107.235 171.279 104.217 171.279 101.528C171.279 98.8382 170.051 81.1073 170.051 81.1073C170.051 81.1073 162.983 79.057 164.755 62.3702C164.755 62.3702 169.627 65.0659 169.501 56.1688C169.501 56.1688 173.519 54.3021 174.848 61.7817C175.74 66.7935 180.688 70.451 180.688 70.451C180.688 70.451 181.796 69.3436 182.568 72.071Z" fill="#105E99"/>
<path d="M223.446 93.6873C227.68 91.9154 236.995 84.2207 240.323 79.7594L238.33 77.9117C238.33 77.9117 227.357 85.3533 223.149 86.6759C218.935 87.9984 216.713 90.4157 217.226 93.4088C217.732 96.4083 222.554 94.0606 223.446 93.6873Z" fill="#FF8B66"/>
<path d="M243.797 73.5074C241.734 76.2601 239.057 75.0958 238.33 77.918C237.874 79.6645 239.817 80.4176 239.817 80.4176C241.728 80.0695 244.772 80.3227 246.183 80.5758C247.6 80.8226 247.183 80.2151 247.183 80.2151C247.309 80.2467 247.429 80.2847 247.556 80.3227C248.48 80.6074 249.113 80.9491 248.872 80.2341C248.6 79.4241 246.025 78.5002 246.025 78.5002C250.024 78.9242 250.372 79.924 250.207 79.171C249.979 78.1395 246.581 77.2536 246.48 77.222C248.91 77.0701 250.138 77.5953 249.758 76.9562C249.372 76.3044 245.069 76.0133 243.474 75.9311C243.114 75.9121 242.892 75.9057 242.892 75.9057C244.721 73.7796 243.797 73.5074 243.797 73.5074Z" fill="#FF8B66"/>
<path d="M243.474 75.9374C243.114 75.9184 242.892 75.9121 242.892 75.9121C242.892 75.9121 242.709 77.0701 241.279 77.5763C241.279 77.5763 242.968 77.7662 243.474 75.9374Z" fill="#EF6E4B"/>
<path d="M244.462 79.3292C244.791 79.3924 246.702 79.7405 247.176 80.2151C247.303 80.2467 247.423 80.2847 247.55 80.3227C247.588 79.5823 244.879 79.3545 244.462 79.3292Z" fill="#EF6E4B"/>
<path d="M124.503 122.593C127.198 113.26 132.533 106.337 132.533 106.337L140.588 107.672L140.67 107.527L141.322 107.659H141.417V107.678L149.732 109.343C149.732 109.343 153.314 116.006 155.693 125.428C158.072 134.851 150.953 158.65 150.953 158.65C150.953 158.65 154.959 169.819 145.682 198.927H141.31C141.31 198.927 142.942 162.675 142.309 158.65C141.765 155.182 141.063 142.482 141.423 132.756C140.917 132.864 140.392 132.908 139.841 132.87C139.873 142.602 138.74 155.252 138.082 158.694C137.317 162.694 137.722 199.003 137.722 199.003L133.349 198.858C125.053 169.452 129.432 158.403 129.432 158.403C129.432 158.403 121.807 131.933 124.503 122.593Z" fill="#FF8B66"/>
<path d="M161.964 78.4179C161.679 73.4758 146.258 75.6526 146.258 75.6526C146.258 75.6526 136.254 68.6476 133.159 70.8877C132.064 71.6787 131.558 76.3867 131.368 82.1325C130.204 84.189 129.198 87.2897 131.267 90.112C131.305 98.5535 131.691 106.565 131.691 106.565C140.455 113.177 149.732 109.906 149.732 109.906C149.732 109.906 153.428 102.066 156.756 94.1176C158.895 92.3901 159.357 89.8779 159.287 87.8213C160.907 83.5626 162.053 79.9493 161.964 78.4179Z" fill="#0E3944"/>
<path d="M160.028 53.2517C155.554 45.6138 144.239 46.5504 140.367 51.5305C135.684 57.5547 138.171 71.5838 138.171 71.5838C138.171 71.5838 148.954 62.5981 155.414 74.8806C155.421 74.8806 165.033 61.7944 160.028 53.2517Z" fill="#FFB878"/>
<path d="M131.368 202.566C131.634 200.744 130.963 199.453 131.438 198.573C132.172 197.219 132.95 198.934 132.95 198.934C133.014 196.871 136.475 196.871 136.823 197.82C136.918 198.073 137.019 198.301 137.133 198.516C137.348 198.016 137.715 197.535 138.184 197.82C140.031 198.927 137.734 201.788 139.418 203.87C141.563 206.521 140.24 210.527 140.24 210.527H129.983C128.774 204.901 131.103 204.376 131.368 202.566Z" fill="#0E3944"/>
<path d="M137.703 201.883C137.703 201.883 135.279 200.611 132.058 202.294L132.691 201.136C132.691 201.136 134.823 199.807 137.405 200.801L137.703 201.883Z" fill="#205260"/>
<path d="M138.127 203.813C138.127 203.813 134.672 202.61 131.457 204.3L132.064 203.072C132.064 203.072 135.121 201.75 137.709 202.737L138.127 203.813Z" fill="#205260"/>
<path d="M147.77 202.566C147.505 200.744 148.175 199.453 147.701 198.573C146.967 197.219 146.188 198.934 146.188 198.934C146.125 196.871 142.664 196.871 142.316 197.82C142.221 198.073 142.119 198.301 142.006 198.516C141.79 198.016 141.423 197.535 140.955 197.82C139.107 198.927 141.404 201.788 139.721 203.87C137.576 206.521 138.899 210.527 138.899 210.527H149.156C150.365 204.901 148.036 204.376 147.77 202.566Z" fill="#0E3944"/>
<path d="M141.43 201.883C141.43 201.883 143.853 200.611 147.074 202.294L146.442 201.136C146.442 201.136 144.309 199.807 141.727 200.801L141.43 201.883Z" fill="#205260"/>
<path d="M141.012 203.813C141.012 203.813 144.467 202.61 147.682 204.3L147.074 203.072C147.074 203.072 144.018 201.75 141.43 202.737L141.012 203.813Z" fill="#205260"/>
<path d="M145.518 64.5977C145.518 64.5977 145.948 69.9891 143.771 74.7984C143.771 74.7984 145.606 78.1838 150.523 76.1209C150.523 76.1209 149.694 71.5331 152.947 66.0784C155.13 62.4335 145.518 64.5977 145.518 64.5977Z" fill="#EF6E4B"/>
<path d="M156.408 62.0729C156.408 62.0729 158.743 60.4719 158.559 62.8196C158.344 65.5343 155.725 66.1607 155.408 65.2242C155.092 64.2876 156.408 62.0729 156.408 62.0729Z" fill="#FF8B66"/>
<path d="M142.575 59.6366C142.575 59.6366 140.968 57.3016 140.297 59.5543C139.519 62.1678 141.74 63.6928 142.373 62.9335C143.005 62.1741 142.575 59.6366 142.575 59.6366Z" fill="#FF8B66"/>
<path d="M147.91 70.4764C152.282 71.2927 155.282 68.8944 156.883 60.3263C157.705 55.9031 155.965 52.7771 151.061 51.8659C146.163 50.9546 143.594 53.277 142.771 57.7002C141.057 66.9011 143.392 69.6348 147.91 70.4764Z" fill="#FF8B66"/>
<path d="M143.651 61.0224C143.493 61.4464 143.796 61.9526 144.328 62.1488C144.859 62.3449 145.423 62.1614 145.581 61.7374C145.739 61.3135 145.435 60.8072 144.904 60.6111C144.372 60.4149 143.809 60.5984 143.651 61.0224Z" fill="#DB614D"/>
<path d="M152.605 62.9398C152.548 63.3891 152.966 63.813 153.529 63.8763C154.092 63.9459 154.592 63.6359 154.649 63.1803C154.706 62.731 154.288 62.307 153.725 62.2437C153.162 62.1741 152.656 62.4842 152.605 62.9398Z" fill="#DB614D"/>
<path d="M146.378 56.9029C146.454 56.9662 146.568 56.9725 146.65 56.9156C147.372 56.3904 148.435 56.6182 148.448 56.6182C148.568 56.6435 148.688 56.5675 148.713 56.4473C148.739 56.3271 148.663 56.2068 148.542 56.1815C148.492 56.1689 147.271 55.9158 146.391 56.5486C146.29 56.6182 146.271 56.7574 146.34 56.8586C146.353 56.8776 146.366 56.8903 146.378 56.9029Z" fill="#FFB878"/>
<path d="M152.896 57.4155C152.928 57.4408 152.966 57.4598 153.004 57.4661C153.016 57.4661 154.086 57.6433 154.573 58.39C154.643 58.4912 154.775 58.5229 154.883 58.4533C154.984 58.3837 155.016 58.2508 154.946 58.1432C154.351 57.232 153.124 57.0295 153.073 57.0231C152.953 57.0042 152.839 57.0864 152.82 57.2067C152.801 57.2889 152.833 57.3649 152.896 57.4155Z" fill="#FFB878"/>
<path d="M146.429 59.3392C146.328 59.8834 146.492 60.3706 146.79 60.4276C147.093 60.4845 147.416 60.0922 147.517 59.548C147.619 59.0038 147.454 58.5165 147.157 58.4596C146.853 58.4026 146.53 58.795 146.429 59.3392Z" fill="#1A4850"/>
<path d="M152.39 60.5415C152.289 61.0857 152.453 61.5729 152.751 61.6236C153.054 61.6805 153.377 61.2882 153.478 60.744C153.579 60.1998 153.415 59.7125 153.118 59.6556C152.82 59.605 152.491 59.9973 152.39 60.5415Z" fill="#1A4850"/>
<path d="M150.738 65.5912C150.738 65.5912 147.941 65.4646 146.676 64.4712C146.676 64.4712 147.093 66.6353 148.612 66.7302C150.137 66.8315 150.738 65.5912 150.738 65.5912Z" fill="#1A4850"/>
<path d="M147.948 59.3455C147.948 59.3455 147.796 57.9344 147.258 57.928C146.714 57.928 146.1 58.9975 146.1 58.9975L145.397 58.4406L146.157 58.6874C146.157 58.6874 146.783 57.5673 147.302 57.6623C148.042 57.8015 147.948 59.3455 147.948 59.3455Z" fill="#1A4850"/>
<path d="M152.162 60.301C152.162 60.301 152.807 59.0354 153.32 59.2316C153.826 59.4278 154.01 60.6427 154.01 60.6427L154.864 60.3769L154.067 60.3327C154.067 60.3327 153.883 59.0607 153.364 58.9658C152.63 58.8203 152.162 60.301 152.162 60.301Z" fill="#1A4850"/>
<path d="M148.954 62.9461C149.036 63.0157 149.131 63.079 149.238 63.1296L149.447 62.6993C149.08 62.5221 149.036 62.269 149.068 62.0855C149.112 61.826 149.314 61.6172 149.466 61.5982C149.555 61.5856 149.631 61.6615 149.694 61.8134L150.137 61.6299C149.928 61.1236 149.561 61.1047 149.416 61.1237C149.036 61.1679 148.675 61.5539 148.599 62.0096C148.536 62.3703 148.669 62.7056 148.954 62.9461Z" fill="#DB614D"/>
<path d="M142.29 61.1426C142.29 61.1426 140.474 55.8398 143.771 51.4925C147.068 47.1452 155.978 50.3725 157.61 53.72C159.243 57.0674 156.054 63.8384 156.054 63.8384C156.054 63.8384 158.522 54.859 153.554 53.3782C153.554 53.3782 152.94 55.6247 149.093 57.2193C145.309 58.7886 143.043 58.5545 143.043 58.5545L142.29 61.1426Z" fill="#FFB878"/>
<path d="M157.965 75.545C157.965 75.545 163.584 75.6463 177.36 89.4792C179.271 91.3966 177.094 97.4144 171.38 93.7063C165.09 89.6247 160.92 85.3977 159.61 86.9607C159.61 86.9543 156.332 79.0381 157.965 75.545Z" fill="#EF6E4B"/>
<path d="M178.17 88.6819C178.126 84.0878 174.519 72.5646 171.646 67.7996L169.184 68.9513C169.184 68.9513 171.931 81.9173 171.57 86.3215C171.209 90.7195 172.601 93.6936 175.569 94.3517C178.531 95.0035 178.183 89.65 178.17 88.6819Z" fill="#FF8B66"/>
<path d="M167.166 62.2247C168.937 65.1735 166.849 67.2111 169.184 68.9513C170.633 70.0334 172.057 68.5147 172.057 68.5147C172.456 66.6163 173.842 63.8953 174.607 62.674C175.367 61.4527 174.652 61.6109 174.652 61.6109C174.734 61.5033 174.81 61.4084 174.892 61.3072C175.5 60.5605 176.063 60.1048 175.31 60.0542C174.455 59.9973 172.633 62.0349 172.633 62.0349C174.538 58.4912 175.594 58.5482 174.829 58.4153C173.791 58.2381 171.684 61.0477 171.621 61.13C172.393 58.8203 173.348 57.8837 172.608 57.9913C171.861 58.0989 169.969 61.9779 169.286 63.4207C169.134 63.7434 169.039 63.9459 169.039 63.9459C167.767 61.4653 167.166 62.2247 167.166 62.2247Z" fill="#FF8B66"/>
<path d="M169.292 63.4397C169.14 63.7624 169.045 63.9649 169.045 63.9649C169.045 63.9649 170.045 64.5724 169.975 66.0911C169.981 66.0911 170.798 64.5977 169.292 63.4397Z" fill="#EF6E4B"/>
<path d="M172.81 63.8003C172.994 63.5156 174.038 61.883 174.658 61.6172C174.74 61.5096 174.816 61.4147 174.898 61.3135C174.221 61.0034 172.987 63.427 172.81 63.8003Z" fill="#EF6E4B"/>
<path d="M135.058 70.4574C135.058 70.4574 129.508 69.2867 113.194 79.9999C110.929 81.487 111.828 87.8213 118.181 85.3597C125.173 82.6514 130.444 79.3292 131.406 81.1263C131.406 81.12 135.943 74.2035 135.058 70.4574Z" fill="#EF6E4B"/>
<path d="M112.555 79.0507C113.536 74.5642 119.428 64.0219 123.218 59.9467L125.395 61.5793C125.395 61.5793 120.048 73.71 119.503 78.0889C118.959 82.4678 116.979 85.0939 113.948 85.1256C110.91 85.1635 112.353 79.9936 112.555 79.0507Z" fill="#FF8B66"/>
<path d="M128.755 55.4095C126.42 57.9344 128.046 60.358 125.401 61.5793C123.762 62.3386 122.68 60.5668 122.68 60.5668C122.68 58.6241 121.883 55.6753 121.383 54.3274C120.889 52.9796 121.554 53.277 121.554 53.277C121.497 53.1568 121.44 53.0429 121.377 52.9353C120.934 52.081 120.478 51.5178 121.225 51.6254C122.073 51.7456 123.439 54.1123 123.439 54.1123C122.3 50.2586 121.256 50.094 122.028 50.1193C123.085 50.1573 124.566 53.3403 124.61 53.4352C124.325 51.0179 123.585 49.9042 124.287 50.1636C124.996 50.4231 126.053 54.6122 126.426 56.1562C126.509 56.5042 126.559 56.7257 126.559 56.7257C128.325 54.5489 128.755 55.4095 128.755 55.4095Z" fill="#FF8B66"/>
<path d="M126.42 56.1625C126.502 56.5106 126.553 56.7321 126.553 56.7321C126.553 56.7321 125.445 57.1181 125.205 58.6178C125.205 58.6178 124.711 56.9852 126.42 56.1625Z" fill="#EF6E4B"/>
<path d="M122.908 55.7955C122.788 55.4791 122.098 53.6694 121.547 53.2833C121.49 53.1631 121.433 53.0492 121.37 52.9416C122.098 52.7708 122.807 55.3969 122.908 55.7955Z" fill="#EF6E4B"/>
<path d="M131.621 104.913C131.621 104.913 112.815 130.668 118.719 157.935C118.719 157.935 125.085 163.852 130.071 161.795C135.058 159.738 140.227 167.167 144.682 164.801C149.137 162.428 153.073 160.688 156.168 161.953C159.262 163.219 164.47 157.935 164.47 157.935C164.47 157.935 162.166 127.782 150.738 107.862C150.738 107.868 141.423 112.127 131.621 104.913Z" fill="#FFB878"/>
<path d="M139.411 203.863C139.411 203.863 141.468 206.445 140.639 210.52H138.905C138.899 210.527 138.5 206.863 139.411 203.863Z" fill="#07262D"/>
<path d="M78.3718 133.882C78.3718 133.882 81.8078 144.691 90.1861 159.188C90.1861 159.188 88.7496 174.54 112.549 203.015L115.833 201.212C115.833 201.212 103.589 172.584 101.595 164.098C99.602 155.613 100.456 144.292 94.0524 126.593L78.3718 133.882Z" fill="#FF8B66"/>
<path d="M92.888 112.095L81.6306 107.527C79.6753 113.772 74.6192 118.284 75.0242 128.086C75.2267 132.94 78.378 137.92 78.378 137.92C91.673 137.439 96.1912 131.87 96.1912 131.87L94.1726 122.498C94.1726 122.498 92.8058 116.171 92.888 112.095Z" fill="#CE364C"/>
<path d="M66.1966 126.637C66.1966 126.637 65.8296 137.97 68.8923 154.436C68.8923 154.436 62.4125 168.433 75.3469 203.212L79.0424 202.604C79.0424 202.604 77.0554 171.534 78.0109 162.871C78.9664 154.208 83.9465 146.583 83.4213 124.998L66.1966 126.637Z" fill="#FF8B66"/>
<path d="M92.888 112.102L88.4331 119.657L87.351 121.486L85.0477 125.397L83.5669 135.844L83.4973 136.312L83.4657 136.54C72.0437 135.224 65.9626 138.78 65.9626 138.78L65.855 137.799L65.8233 137.483C65.8044 137.426 65.7854 137.375 65.7601 137.312C64.697 134.199 63.2036 125.783 64.9754 120.056C67.8673 110.684 73.0625 111.57 76.9922 106.343C77.0048 106.343 92.888 112.102 92.888 112.102Z" fill="#F24052"/>
<path d="M73.0815 199.978C73.0815 199.978 74.5432 203.23 74.0939 205.407C73.8218 206.724 72.4044 208.413 73.5434 210.52H82.4342C82.4342 210.52 83.4657 208.147 81.3774 205.933C80.2257 204.705 79.3715 199.022 79.3715 199.022C78.378 199.181 78.6311 199.972 78.6311 199.972C78.6311 199.972 78.6627 197.295 76.4163 197.649C73.7269 198.08 74.3597 200.446 74.3597 200.446C74.3597 200.446 74.0433 199.592 73.0815 199.978Z" fill="#0C476B"/>
<path d="M126.458 210.527H111.505C111.505 210.527 111.087 207.35 111.745 206.287C112.695 204.756 109.41 201.364 109.41 201.364C109.41 201.364 111.404 198.877 113.169 200.288C113.169 200.288 113.011 197.175 115.226 197.206C115.226 197.206 117.282 202.484 119.655 204.37C119.706 204.414 119.763 204.452 119.82 204.49C121.598 205.768 124.787 206.091 126.04 207.831C126.515 208.483 126.711 209.343 126.458 210.527Z" fill="#0C476B"/>
<path d="M84.1871 136.028L84.0478 136.477C83.858 136.42 83.6745 136.369 83.491 136.312C74.1066 133.705 67.6458 136.774 65.8486 137.799L65.817 137.483C65.798 137.426 65.779 137.375 65.7537 137.312C66.589 136.85 68.1647 136.097 70.3731 135.54C70.2719 134.661 69.6264 128.618 70.3858 121.942C71.2021 114.671 78.321 110.286 78.397 110.241L78.6374 110.653C78.5805 110.684 73.5498 113.791 71.5691 119.069C78.1755 118.993 80.8016 110.728 80.8269 110.646L81.2825 110.785C81.2572 110.874 78.5046 119.543 71.4805 119.543H71.3983C71.1388 120.315 70.949 121.138 70.8541 121.999C70.12 128.497 70.7148 134.389 70.8351 135.426C73.999 134.699 78.34 134.408 83.5606 135.844C83.7631 135.901 83.9782 135.964 84.1871 136.028Z" fill="#CE364C"/>
<path d="M89.028 114.247C89.0216 114.31 88.3825 120.79 85.3894 125.688L85.7944 125.935C88.8445 120.942 89.4899 114.361 89.4962 114.291L89.028 114.247Z" fill="#CE364C"/>
<path d="M109.455 111.336C109.455 111.336 108.347 116.557 107.158 116.955C105.968 117.354 106.999 114.272 106.999 114.272C106.999 114.272 98.7857 110.963 95.4193 110.716C92.0528 110.463 96.7988 104.059 109.455 111.336Z" fill="#0C476B"/>
<path d="M108.031 112.285C108.031 112.285 99.3742 108.33 93.3817 108.647C87.3891 108.963 101.703 89.0299 105.266 91.0865C108.828 93.1431 109.613 109.754 108.031 112.285Z" fill="#0C476B"/>
<path d="M86.5663 74.039C86.5663 74.039 87.4143 71.8622 91.711 71.4699C96.0077 71.0775 99.7854 75.5387 98.9628 78.1712C98.1402 80.8036 86.5663 74.039 86.5663 74.039Z" fill="#0C476B"/>
<path d="M93.3752 55.1754C93.3752 55.1754 93.0778 49.6321 87.8952 48.7652C82.7126 47.8982 78.5994 49.1638 80.4219 56.5992C82.2443 64.0345 81.0547 66.996 77.6502 67.3377C74.2458 67.6731 74.4863 63.6928 74.4863 63.6928C74.4863 63.6928 73.7712 67.3567 77.4921 68.7046C77.4921 68.7046 73.5687 69.021 74.9735 71.4762C76.3783 73.9314 80.7193 73.5328 82.4278 71.4762C82.4278 71.4762 82.5544 73.1468 84.6933 72.5519C84.6933 72.5519 83.8263 72.2672 83.9023 71.1598C83.9782 70.0524 89.8569 71.9255 91.6983 64.9964C93.5397 58.0673 89.8569 56.9219 89.8569 56.9219L93.3752 55.1754Z" fill="#0E3944"/>
<path d="M103.234 77.1523C100.096 77.0068 99.9689 80.1391 101.576 83.1955C103.184 86.2519 118.56 100.091 120.927 97.4841C121.838 96.4779 119.206 91.8585 119.206 91.8585C119.206 91.8585 114.808 88.0238 109.125 81.5756C106.518 78.6078 104.873 77.2283 103.234 77.1523Z" fill="#FF8B66"/>
<path d="M123.022 92.4787C123.882 87.9668 122.623 75.9564 120.737 70.7232L118.092 71.3623C118.092 71.3623 118.231 84.6194 117.01 88.8591C115.789 93.0988 116.573 96.2944 119.345 97.5157C122.129 98.7497 122.838 93.4279 123.022 92.4787Z" fill="#FF8B66"/>
<path d="M115.03 67.825C117.896 69.7297 116.884 72.4634 119.744 73.0329C120.332 73.1531 120.801 73.0076 121.155 72.7671C121.832 72.3115 122.136 71.4699 122.009 70.6662C121.718 68.7931 121.801 66.2936 121.946 65.0407C122.111 63.6105 121.535 64.0598 121.535 64.0598C121.56 63.927 121.592 63.8067 121.623 63.6865C121.851 62.7499 122.161 62.0982 121.459 62.3766C120.668 62.693 119.889 65.3191 119.889 65.3191C120.092 61.3008 121.066 60.8959 120.32 61.1047C119.301 61.3894 118.611 64.8318 118.586 64.9331C118.295 62.5158 118.75 61.2629 118.13 61.6742C117.504 62.0918 117.46 66.4138 117.46 68.0022C117.46 68.3628 117.466 68.5843 117.466 68.5843C115.245 66.8884 115.03 67.825 115.03 67.825Z" fill="#FF8B66"/>
<path d="M117.472 68.0085C117.472 68.3692 117.478 68.5907 117.478 68.5907C117.478 68.5907 118.643 68.7109 119.231 70.1094C119.231 70.1094 119.326 68.4071 117.472 68.0085Z" fill="#EF6E4B"/>
<path d="M120.807 66.8252C120.851 66.4898 121.092 64.5661 121.535 64.0598C121.56 63.927 121.592 63.8067 121.623 63.6865C120.876 63.6991 120.807 66.4138 120.807 66.8252Z" fill="#EF6E4B"/>
<path d="M98.6149 76.9562C98.6149 76.9562 102.886 75.197 108.107 78.3167C113.327 81.4364 116.453 86.3912 116.453 86.3912C116.453 86.3912 116.504 77.0954 118.08 75.5451C118.08 75.5451 120.029 77.8864 122.452 78.3167C122.452 78.3167 128.673 91.2004 124.718 99.2116C120.763 107.223 109.056 99.2116 109.056 99.2116L98.6149 76.9562Z" fill="#0C476B"/>
<path d="M76.9858 106.337C76.9858 106.337 80.1118 98.1105 78.5172 93.4279C75.7899 85.4167 77.2769 78.6521 80.1498 76.6525C84.7882 73.4189 94.5016 77.1144 94.5016 77.1144C94.5016 77.1144 103.956 76.1146 104.917 78.9811C105.879 81.8477 108.145 93.4911 103.639 99.6925C99.1337 105.894 92.888 115.493 92.888 115.493C92.888 115.493 79.517 114.266 76.9858 106.337Z" fill="#CFD8DC"/>
<path d="M82.4279 111.336C82.4279 111.336 81.1306 115.785 79.4727 115.5C77.8148 115.215 70.6326 111.355 70.6199 110.716C70.6136 110.07 71.6387 108.647 71.6387 108.647C71.6387 108.647 71.24 105.242 72.1133 104.926C72.9866 104.609 82.4279 111.336 82.4279 111.336Z" fill="#0C476B"/>
<path d="M97.6151 75.5451C97.6151 75.5451 107.474 92.6812 106.999 114.266C106.999 114.266 111.48 113.07 112.328 105.002C113.169 96.9335 110.284 81.4744 106.348 77.4181C106.348 77.4245 103.525 74.4756 97.6151 75.5451Z" fill="#105E99"/>
<path d="M89.2811 74.8363C89.2811 74.8363 96.6405 101.129 82.4279 111.336C82.4279 111.336 76.467 110.994 72.1956 106.343C67.9242 101.686 73.7016 76.6588 73.7016 76.6588C73.7016 76.6588 81.3078 71.6217 89.2811 74.8363Z" fill="#105E99"/>
<path d="M90.7934 83.069C90.7934 83.069 90.7554 75.1654 89.8632 73.0772C88.9709 70.9889 86.5726 74.039 86.5726 74.039C86.5726 74.039 87.2244 77.7092 90.7934 83.069Z" fill="#0C476B"/>
<path d="M100.798 82.316C100.798 82.316 101.709 74.5326 99.0134 73.1658C96.3177 71.7989 96.2734 76.6588 96.2734 76.6588C96.2734 76.6588 98.6338 76.412 100.798 82.316Z" fill="#0C476B"/>
<path d="M93.0588 66.3505C93.0588 66.3505 93.698 71.723 91.7047 76.6145C91.7047 76.6145 94.5396 80.8036 97.2479 78.0446C97.2479 78.0446 97.4947 73.1215 100.538 67.5465C102.582 63.8194 93.0588 66.3505 93.0588 66.3505Z" fill="#EF6E4B"/>
<path d="M88.7114 66.5341C88.7114 66.5341 86.3194 65.0217 86.5852 67.3567C86.9016 70.0651 89.5403 70.5903 89.8188 69.6474C90.1035 68.6982 88.7114 66.5341 88.7114 66.5341Z" fill="#FF8B66"/>
<path d="M102.443 63.6042C102.443 63.6042 103.962 61.2123 104.715 63.4397C105.588 66.0215 103.424 67.6225 102.766 66.8884C102.108 66.1544 102.443 63.6042 102.443 63.6042Z" fill="#FF8B66"/>
<path d="M97.5011 74.6275C93.1601 75.602 90.072 73.3113 88.1673 64.8066C87.1865 60.4213 88.8128 57.2257 93.679 56.1373C98.5452 55.0489 101.19 57.2826 102.177 61.6679C104.221 70.8055 101.988 73.6214 97.5011 74.6275Z" fill="#FF8B66"/>
<path d="M101.418 65.0217C101.589 65.4393 101.311 65.9582 100.785 66.1734C100.26 66.3885 99.6969 66.224 99.5198 65.8064C99.3489 65.3887 99.6273 64.8698 100.153 64.6547C100.678 64.4395 101.247 64.604 101.418 65.0217Z" fill="#DB614D"/>
<path d="M92.54 67.2618C92.6096 67.7111 92.2109 68.1477 91.654 68.23C91.0909 68.3186 90.5846 68.0275 90.5087 67.5782C90.4391 67.1289 90.8377 66.6923 91.3946 66.61C91.9578 66.5214 92.4704 66.8125 92.54 67.2618Z" fill="#DB614D"/>
<path d="M98.3933 61.0604C98.349 61.0604 98.311 61.0477 98.273 61.0224C97.5327 60.5288 96.4759 60.7883 96.4696 60.7946C96.3493 60.8263 96.2291 60.7503 96.1975 60.6364C96.1658 60.5162 96.2418 60.396 96.3557 60.3643C96.4063 60.3517 97.6149 60.0479 98.5198 60.6554C98.6211 60.725 98.6464 60.8642 98.5831 60.9655C98.5388 61.0288 98.4692 61.0604 98.3933 61.0604Z" fill="#0E3944"/>
<path d="M90.2175 62.8892C90.1796 62.8892 90.1416 62.8765 90.1036 62.8575C89.996 62.7943 89.9644 62.6551 90.0277 62.5538C90.5909 61.6173 91.8122 61.3768 91.8628 61.3705C91.983 61.3515 92.0969 61.4274 92.1222 61.5477C92.1475 61.6679 92.0653 61.7818 91.9451 61.8071C91.9324 61.8071 90.8693 62.0223 90.4074 62.7879C90.3694 62.8512 90.2935 62.8892 90.2175 62.8892Z" fill="#0E3944"/>
<path d="M98.5832 63.446C98.7035 63.9839 98.5579 64.4775 98.2605 64.5408C97.9631 64.6104 97.6214 64.2244 97.5011 63.6865C97.3809 63.1486 97.5264 62.655 97.8239 62.5918C98.1213 62.5221 98.463 62.9018 98.5832 63.446Z" fill="#1A4850"/>
<path d="M92.5526 64.7939C92.6728 65.3317 92.5273 65.8253 92.2299 65.8886C91.9324 65.9582 91.5907 65.5722 91.4705 65.0343C91.3503 64.4965 91.4958 64.0029 91.7932 63.9396C92.0906 63.87 92.4323 64.256 92.5526 64.7939Z" fill="#1A4850"/>
<path d="M94.6661 69.717C94.6661 69.717 96.9885 69.7803 98.8363 68.4641C98.8363 68.4641 99.3108 71.704 97.1024 71.9951C95.5584 72.1976 94.6661 69.717 94.6661 69.717Z" fill="#1A4850"/>
<path d="M97.0643 63.503C97.0643 63.503 97.1656 62.0855 97.7035 62.0665C98.2477 62.0475 98.8995 63.0917 98.8995 63.0917L99.5765 62.5095L98.8298 62.7816C98.8298 62.7816 98.1654 61.6869 97.6465 61.8008C96.9125 61.959 97.0643 63.503 97.0643 63.503Z" fill="#1A4850"/>
<path d="M92.888 64.6104C92.888 64.6104 92.1919 63.3701 91.692 63.5853C91.1921 63.8004 91.0529 65.0217 91.0529 65.0217L90.1923 64.7876L90.9833 64.718C90.9833 64.718 91.1161 63.4397 91.635 63.3258C92.3691 63.1486 92.888 64.6104 92.888 64.6104Z" fill="#1A4850"/>
<path d="M95.9126 67.3314L95.6912 66.9074C96.0518 66.7176 96.0835 66.4581 96.0455 66.281C95.9949 66.0215 95.7861 65.819 95.6342 65.8064C95.5456 65.8 95.4697 65.876 95.4127 66.0278L94.9634 65.8633C95.1533 65.3444 95.5203 65.3191 95.6658 65.3254C96.0455 65.3571 96.4189 65.7304 96.5138 66.1797C96.6087 66.6543 96.3809 67.0846 95.9126 67.3314Z" fill="#DB614D"/>
<path d="M89.0533 68.0654C89.0533 68.0654 88.4901 66.0025 88.3129 63.6042C88.0788 60.4846 89.9645 57.5737 92.9577 56.6688C93.9511 56.3714 95.1028 56.2069 96.419 56.3018C98.3807 56.4473 100.07 57.7319 100.874 59.529C101.532 60.9971 102.298 63.0094 102.81 65.3507C102.81 65.3507 103.589 62.8132 102.861 58.9152C102.133 55.0172 98.9629 51.7773 91.5212 53.3783C85.1679 54.7514 82.4279 62.3956 89.0533 68.0654Z" fill="#1A4850"/>
<path d="M98.3173 55.3336C98.3173 55.3336 97.5073 61.3768 89.281 62.1362C89.281 62.1362 94.2674 60.377 94.2674 56.8713C94.2674 56.8713 92.2867 61.3578 87.5408 60.8389C87.5408 60.8389 87.0978 53.6124 98.3173 55.3336Z" fill="#1A4850"/>
<path d="M73.2777 78.5888C77.2833 79.7848 79.9917 86.2646 79.1501 87.005C78.3084 87.7454 59.4068 91.3966 59.4068 91.3966L70.9174 108.001L68.9684 110.836C68.9684 110.836 51.0097 94.9656 51.1109 89.5172C51.2121 84.0815 73.2777 78.5888 73.2777 78.5888Z" fill="#FF8B66"/>
<path d="M70.968 107.508C70.968 107.508 73.4675 107.786 75.0432 108.178C76.6188 108.571 78.7197 108.963 78.783 109.292C78.8463 109.621 75.3026 109.292 75.3026 109.292C75.3026 109.292 78.1882 110.475 78.2578 110.937C78.3211 111.393 74.5812 110.608 74.5812 110.608C74.5812 110.608 76.9416 112.051 76.815 112.443C76.6821 112.836 73.7713 111.855 73.7713 111.855C73.7713 111.855 74.3155 113.234 74.8723 113.886C74.8723 113.886 74.3091 114.196 73.1638 112.924C72.0184 111.652 70.196 112.064 68.7469 110.937C67.3104 109.811 69.6518 107.337 70.968 107.508Z" fill="#FF8B66"/>
<path d="M73.7017 76.6525C73.7017 76.6525 80.7384 77.4624 81.0548 87.834C81.3712 98.2055 65.6462 94.8896 65.6462 94.8896C65.6462 94.8896 69.4936 99.3002 68.2976 104.23C68.2976 104.23 64.0199 104.198 64.1528 106.343C64.1528 106.343 57.5591 106.755 51.1172 97.8131C44.6691 88.8717 53.7433 78.8736 73.7017 76.6525Z" fill="#0C476B"/>
<path d="M109.379 86.5937C109.841 88.1187 109.48 89.5741 108.575 89.8526C107.664 90.131 106.556 89.1185 106.088 87.5935C105.626 86.0685 105.987 84.613 106.892 84.3346C107.803 84.0625 108.917 85.0686 109.379 86.5937Z" fill="#0C476B"/>
<path d="M89.1844 88.4014C89.262 86.6627 88.1532 85.2009 86.7078 85.1364C85.2624 85.0719 84.0277 86.429 83.9501 88.1677C83.8725 89.9064 84.9813 91.3682 86.4267 91.4327C87.8721 91.4973 89.1068 90.1401 89.1844 88.4014Z" fill="#0C476B"/>
<path d="M65.6335 84.189C63.9376 84.5687 62.305 83.7334 61.9886 82.3223C61.6722 80.9112 62.7922 79.4557 64.4881 79.0761C66.184 78.6964 67.8166 79.5317 68.133 80.9428C68.4494 82.3539 67.3294 83.8094 65.6335 84.189Z" fill="#105E99"/>
<path d="M73.8915 207.255C73.8915 207.255 76.3151 204.104 81.2763 206.622C81.2763 206.622 81.4851 208.837 79.1691 208.413C76.8404 207.995 75.4735 209.679 73.8915 207.255Z" fill="#105E99"/>
<path d="M126.04 207.831C122.863 209.362 116.282 205.73 116.282 205.73C117.327 205.907 118.89 205.072 119.82 204.49C121.598 205.768 124.794 206.091 126.04 207.831Z" fill="#105E99"/>
</svg>
