<svg width="20" height="20" viewBox="0 0 20 20" fill="none" xmlns="http://www.w3.org/2000/svg">
<path d="M16.7501 7.68458C15.2417 7.68458 14.6251 6.61792 15.3751 5.30958C15.8084 4.55125 15.5501 3.58458 14.7917 3.15125L13.3501 2.32625C12.6917 1.93458 11.8417 2.16792 11.4501 2.82625L11.3584 2.98458C10.6084 4.29292 9.37508 4.29292 8.61675 2.98458L8.52508 2.82625C8.15008 2.16792 7.30008 1.93458 6.64175 2.32625L5.20008 3.15125C4.44175 3.58458 4.18341 4.55958 4.61675 5.31792C5.37508 6.61792 4.75841 7.68458 3.25008 7.68458C2.38341 7.68458 1.66675 8.39291 1.66675 9.26791V10.7346C1.66675 11.6012 2.37508 12.3179 3.25008 12.3179C4.75841 12.3179 5.37508 13.3846 4.61675 14.6929C4.18341 15.4512 4.44175 16.4179 5.20008 16.8512L6.64175 17.6762C7.30008 18.0679 8.15008 17.8346 8.54175 17.1762L8.63341 17.0179C9.38341 15.7096 10.6167 15.7096 11.3751 17.0179L11.4667 17.1762C11.8584 17.8346 12.7084 18.0679 13.3667 17.6762L14.8084 16.8512C15.5667 16.4179 15.8251 15.4429 15.3917 14.6929C14.6334 13.3846 15.2501 12.3179 16.7584 12.3179C17.6251 12.3179 18.3417 11.6096 18.3417 10.7346V9.26791C18.3334 8.40125 17.6251 7.68458 16.7501 7.68458ZM10.0001 12.7096C8.50841 12.7096 7.29175 11.4929 7.29175 10.0012C7.29175 8.50958 8.50841 7.29292 10.0001 7.29292C11.4917 7.29292 12.7084 8.50958 12.7084 10.0012C12.7084 11.4929 11.4917 12.7096 10.0001 12.7096Z" fill="#6E6E6E"/>
</svg>
