<svg width="20" height="20" viewBox="0 0 20 20" fill="none" xmlns="http://www.w3.org/2000/svg">
<path fill-rule="evenodd" clip-rule="evenodd" d="M10.0001 1.66675C14.6025 1.66675 18.3334 5.39767 18.3334 10.0001C18.3334 14.6024 14.6025 18.3334 10.0001 18.3334C5.39772 18.3334 1.66675 14.6024 1.66675 10.0001C1.66675 5.39767 5.39772 1.66675 10.0001 1.66675ZM10.8352 9.16675H9.16857V14.1667H10.8352V9.16675ZM10.0085 5.62508C9.40097 5.62508 8.96024 6.06337 8.96024 6.65519C8.96024 7.27095 9.38936 7.70842 10.0085 7.70842C10.6037 7.70842 11.0436 7.27095 11.0436 6.66675C11.0436 6.06337 10.6037 5.62508 10.0085 5.62508Z" fill="#6E6E6E"/>
</svg>
