<svg width="20" height="20" viewBox="0 0 20 20" fill="none" xmlns="http://www.w3.org/2000/svg">
<g clip-path="url(#clip0_1_1000)">
<path opacity="0.967" fill-rule="evenodd" clip-rule="evenodd" d="M9.27734 -0.0195312C9.74609 -0.0195312 10.2148 -0.0195312 10.6836 -0.0195312C12.9754 0.287272 14.6095 1.48519 15.5859 3.57422C15.6927 3.84232 15.7838 4.11574 15.8594 4.39453C15.9532 4.46504 16.0184 4.55617 16.0547 4.66797C16.0807 6.51691 16.0807 8.3659 16.0547 10.2148C16.0278 10.7781 15.813 11.2534 15.4102 11.6406C15.0947 11.8639 14.7432 11.9616 14.3555 11.9336C14.3555 11.53 14.3555 11.1263 14.3555 10.7227C14.5998 10.7327 14.7496 10.6155 14.8047 10.3711C14.8599 9.68262 14.8795 8.99254 14.8633 8.30078C14.681 8.30078 14.4987 8.30078 14.3164 8.30078C14.3281 6.95883 14.3151 5.6177 14.2773 4.27734C14.3555 4.27734 14.4336 4.27734 14.5117 4.27734C13.8176 2.63359 12.5937 1.62448 10.8398 1.25C8.64442 0.977379 6.9452 1.76514 5.74219 3.61328C5.62234 3.82672 5.52469 4.04809 5.44922 4.27734C5.52734 4.27734 5.60547 4.27734 5.68359 4.27734C5.64559 5.61754 5.63258 6.95867 5.64453 8.30078C5.21465 8.3073 4.78496 8.30078 4.35547 8.28125C4.14414 8.21316 3.99438 8.07645 3.90625 7.87109C3.88021 6.81641 3.88021 5.76172 3.90625 4.70703C3.93176 4.57785 3.99684 4.47371 4.10156 4.39453C4.74789 2.15316 6.19973 0.733887 8.45703 0.136719C8.73508 0.0796547 9.00852 0.0275715 9.27734 -0.0195312Z" fill="#6E6E6E"/>
<path opacity="0.953" fill-rule="evenodd" clip-rule="evenodd" d="M8.84766 2.44141C9.61598 2.4349 10.3842 2.44141 11.1523 2.46094C11.5783 2.51781 11.9559 2.68057 12.2852 2.94922C11.4505 3.61006 10.5 3.86396 9.43359 3.71094C8.78062 3.62611 8.2077 3.3722 7.71484 2.94922C7.84309 2.83275 7.98629 2.7351 8.14453 2.65625C8.37637 2.55949 8.61074 2.48787 8.84766 2.44141Z" fill="#6E6E6E"/>
<path opacity="0.986" fill-rule="evenodd" clip-rule="evenodd" d="M6.97267 3.84766C8.43228 4.91336 10.0208 5.15426 11.7383 4.57031C12.1855 4.40551 12.5891 4.17113 12.9492 3.86719C12.9817 3.84032 13.0077 3.84684 13.0274 3.88672C13.1283 4.13727 13.1868 4.39766 13.2031 4.66797C13.2292 6.20441 13.2292 7.7409 13.2031 9.27734C13.0498 10.4593 12.3923 11.182 11.2305 11.4453C10.3972 11.4714 9.5638 11.4714 8.73048 11.4453C7.6604 11.1825 7.01587 10.512 6.79688 9.43359C6.77083 7.77996 6.77083 6.12629 6.79688 4.47266C6.83142 4.25621 6.89001 4.04785 6.97267 3.84766Z" fill="#6E6E6E"/>
<path opacity="0.972" fill-rule="evenodd" clip-rule="evenodd" d="M8.10539 12.4414C8.29859 12.4929 8.4939 12.5385 8.69133 12.5781C9.5507 12.6042 10.4101 12.6042 11.2695 12.5781C11.4551 12.5447 11.6374 12.4992 11.8163 12.4414C11.8619 12.9618 11.8684 13.4826 11.8359 14.0039C11.5431 15.1496 10.8074 15.677 9.62883 15.5859C8.88808 15.3921 8.3998 14.9299 8.16398 14.1992C8.10867 13.6152 8.08914 13.0293 8.10539 12.4414Z" fill="#6E6E6E"/>
<path opacity="0.99" fill-rule="evenodd" clip-rule="evenodd" d="M19.9805 19.3164C19.9805 19.5378 19.9805 19.7591 19.9805 19.9805C13.3138 19.9805 6.64715 19.9805 -0.0195312 19.9805C-0.0195312 19.7461 -0.0195312 19.5117 -0.0195312 19.2773C0.343491 17.2435 1.42422 15.7135 3.22266 14.6875C4.38836 14.038 5.63836 13.706 6.97266 13.6914C7.03645 15.0112 7.66145 15.9552 8.84766 16.5234C10.3849 17.018 11.6154 16.6078 12.5391 15.293C12.8359 14.7997 12.9856 14.2659 12.9883 13.6914C15.249 13.7186 17.1305 14.565 18.6328 16.2305C19.3601 17.1382 19.8093 18.1668 19.9805 19.3164ZM4.31641 16.3867C5.08473 16.3802 5.85297 16.3867 6.62109 16.4062C6.58621 16.7657 6.57316 17.1368 6.58203 17.5195C5.82684 17.5195 5.0716 17.5195 4.31641 17.5195C4.31641 17.1419 4.31641 16.7643 4.31641 16.3867Z" fill="#6E6E6E"/>
</g>
<defs>
<clipPath id="clip0_1_1000">
<rect width="20" height="20" fill="white"/>
</clipPath>
</defs>
</svg>
