<svg width="20" height="20" viewBox="0 0 20 20" fill="none" xmlns="http://www.w3.org/2000/svg">
<path fill-rule="evenodd" clip-rule="evenodd" d="M1.66675 10.0001C1.66675 5.39771 5.39771 1.66675 10.0001 1.66675C14.6024 1.66675 18.3334 5.39771 18.3334 10.0001C18.3334 14.6024 14.6024 18.3334 10.0001 18.3334C5.39771 18.3334 1.66675 14.6024 1.66675 10.0001ZM10.0001 7.50008C9.75133 7.50008 9.52875 7.60805 9.37483 7.78243C9.07033 8.12749 8.54366 8.16032 8.19864 7.85577C7.85358 7.55121 7.82075 7.0246 8.1253 6.67954C8.58216 6.16191 9.25325 5.83341 10.0001 5.83341C11.3808 5.83341 12.5001 6.95271 12.5001 8.33341C12.5001 9.42275 11.804 10.3477 10.8334 10.6909V10.8334C10.8334 11.2937 10.4603 11.6667 10.0001 11.6667C9.53983 11.6667 9.16675 11.2937 9.16675 10.8334V10.4167C9.16675 9.69041 9.7395 9.26008 10.2069 9.14108C10.5676 9.04925 10.8334 8.72133 10.8334 8.33341C10.8334 7.87318 10.4603 7.50008 10.0001 7.50008ZM10.0001 12.5001C9.53983 12.5001 9.16675 12.8732 9.16675 13.3334C9.16675 13.7937 9.53983 14.1667 10.0001 14.1667H10.0084C10.4687 14.1667 10.8417 13.7937 10.8417 13.3334C10.8417 12.8732 10.4687 12.5001 10.0084 12.5001H10.0001Z" fill="#6E6E6E"/>
</svg>
