<svg width="30" height="30" viewBox="0 0 30 30" fill="none" xmlns="http://www.w3.org/2000/svg">
<path d="M8.99152 27.8172C7.49553 27.5879 6.25454 26.8114 5.43749 25.5929C5.12422 25.126 4.8308 24.4238 4.72606 23.8909C4.6382 23.4441 4.63113 23.2285 4.63113 20.9781V18.7187H4.39887C3.99402 18.7187 3.58381 18.6244 3.22985 18.4527C2.67736 18.1834 2.32584 17.6309 2.20979 16.8494C2.15772 16.4987 2.15793 16.1481 2.21047 15.9713C2.37033 15.433 3.22619 15.3625 3.43833 15.8706C3.46576 15.937 3.47904 16.0549 3.47926 16.2368C3.48029 16.7734 3.56412 17.0597 3.7721 17.2377C3.92317 17.3663 4.09919 17.4199 4.38224 17.422L4.61793 17.4233L4.62436 15.8324L4.63079 14.2414H14.9617H25.2927V15.8245V17.4079L25.3876 17.4293C25.4397 17.4293 25.5724 17.4507 25.6822 17.4293C26.3012 17.3843 26.5214 17.0714 26.5231 16.2381C26.5236 15.9509 26.5567 15.8262 26.6623 15.7129C26.8942 15.4643 27.3847 15.4684 27.6373 15.7129C27.8061 15.8822 27.8453 16.039 27.8235 16.4597C27.7772 17.3481 27.4852 17.9899 26.9724 18.3297C26.6049 18.5729 26.2241 18.6822 25.6661 18.7045L25.2929 18.7259V20.9624C25.2929 23.2634 25.2843 23.4728 25.1838 23.9693C25.0437 24.6546 24.7043 25.3994 24.2791 25.9549C24.1093 26.1764 23.7209 26.5763 23.4991 26.7578C22.9542 27.2035 22.3204 27.5264 21.6485 27.7002C21.0045 27.8674 21.3656 27.8588 15.0108 27.8567C10.2369 27.8567 9.18605 27.8558 8.99152 27.8172ZM4.63124 12.4729V11.5431H8.98674H13.3423L13.3858 11.4059C13.4396 11.2345 13.587 10.9857 13.7069 10.8621L13.7969 10.7699V10.0836V9.39722H14.9623H16.1277V10.0836V10.7699L16.2177 10.8621C16.3377 10.9864 16.4851 11.2354 16.5389 11.4059L16.5824 11.5431H20.9379H25.2934V12.4729V13.4024H14.9623H4.63109L4.63124 12.4729ZM8.57801 10.4042C8.41559 10.3634 8.26257 10.252 8.16648 10.1076C7.99655 9.85108 7.99634 9.63744 8.16558 9.31301C8.32586 9.00594 8.37772 8.83772 8.39405 8.57094C8.42212 8.11408 8.32077 7.76565 7.8797 6.80308C7.47506 5.92022 7.4066 5.72158 7.35176 5.27115C7.26177 4.53165 7.56954 3.69594 8.17332 3.04087C8.3942 2.80129 8.64592 2.72308 8.9303 2.80579C9.09916 2.85508 9.29544 3.01365 9.37235 3.16515C9.43256 3.28301 9.44006 3.49258 9.38735 3.61558C9.36806 3.66272 9.29949 3.75915 9.23564 3.83072C9.03549 4.05658 8.95576 4.17079 8.86162 4.36729C8.73969 4.62187 8.70691 4.79715 8.72169 5.11365C8.73669 5.43787 8.82626 5.71837 9.13295 6.40472C9.40016 7.00279 9.50227 7.27151 9.58779 7.60194C9.80015 8.42179 9.73801 9.08094 9.38079 9.80265C9.25501 10.0566 9.10942 10.2653 9.00384 10.3427C8.90677 10.4134 8.72148 10.4406 8.57801 10.4042ZM11.5232 10.2006C11.4068 10.1642 11.1892 9.96444 11.1189 9.83072C11.0398 9.68072 11.0377 9.3743 11.1146 9.22558C11.4835 8.51222 11.5059 8.43337 11.5048 7.85072C11.5039 7.33579 11.4759 7.18965 11.2061 6.29244C10.8979 5.26729 10.8344 4.95037 10.8333 4.43179C10.8319 3.76258 10.9882 3.22794 11.3451 2.68044C11.6195 2.25937 11.7702 2.14322 12.0425 2.14258C12.2287 2.14215 12.416 2.22829 12.5491 2.37615C12.6773 2.51758 12.7233 2.62965 12.7233 2.79637C12.7233 2.96137 12.6841 3.05651 12.5004 3.33272C12.157 3.84872 12.0798 4.40222 12.2497 5.13037C12.2777 5.25037 12.3849 5.61808 12.4875 5.94615C12.7927 6.92158 12.8749 7.38958 12.845 7.98165C12.8178 8.52165 12.6993 8.97058 12.4472 9.48744C12.2475 9.89737 12.106 10.0988 11.9659 10.1729C11.8412 10.2394 11.6754 10.2499 11.5232 10.2006Z" fill="black"/>
</svg>
