<svg width="30" height="30" viewBox="0 0 30 30" fill="none" xmlns="http://www.w3.org/2000/svg">
<path d="M23.4978 8.37463L19.8884 11.9841L19.8978 12.0157L22.6389 22.1052C22.6858 22.3256 22.6801 22.554 22.6222 22.7718C22.5643 22.9897 22.4559 23.1908 22.3057 23.3588L21.401 24.2636C21.3425 24.3319 21.2677 24.3844 21.1836 24.4162C21.0994 24.4479 21.0086 24.458 20.9195 24.4454C20.8305 24.4328 20.746 24.398 20.674 24.3441C20.6019 24.2903 20.5446 24.2191 20.5073 24.1373L16.8 17.4267L15.6236 16.2488L12.5131 19.3594C12.1566 19.6775 11.7581 19.9453 11.3289 20.1552L12.0236 22.4399C12.0764 22.6577 12.0753 22.8851 12.0206 23.1024C11.9658 23.3197 11.859 23.5204 11.7094 23.6873L11.4331 23.9652C11.292 24.1052 11.1013 24.1837 10.9026 24.1837C10.7038 24.1837 10.5131 24.1052 10.3721 23.9652L8.72995 22.3246L8.70153 22.293L7.45732 21.052L7.42574 21.0204L5.78679 19.3799C5.64679 19.2388 5.56823 19.0481 5.56823 18.8494C5.56823 18.6506 5.64679 18.4599 5.78679 18.3188L6.06469 18.0409C6.23182 17.8919 6.43269 17.7857 6.64999 17.7315C6.86729 17.6773 7.0945 17.6768 7.31206 17.7299L9.59679 18.4215C9.80688 17.9923 10.0746 17.5939 10.3926 17.2373L13.5031 14.1267L12.3252 12.952L5.61469 9.24463C5.53282 9.20735 5.46168 9.15003 5.40782 9.07799C5.35396 9.00594 5.31913 8.92148 5.30654 8.83241C5.29395 8.74335 5.30401 8.65254 5.33579 8.56839C5.36757 8.48424 5.42005 8.40945 5.48837 8.35094L6.39311 7.44621C6.56125 7.29615 6.76236 7.18779 6.98016 7.12991C7.19797 7.07203 7.42634 7.06626 7.64679 7.11305L17.7363 9.8541L17.7678 9.86358L21.3773 6.2541C21.9615 5.66673 23.9368 4.64358 24.5242 5.22779C25.1084 5.81516 24.0836 7.78884 23.4978 8.37463Z" fill="black"/>
</svg>
