<svg width="30" height="30" viewBox="0 0 30 30" fill="none" xmlns="http://www.w3.org/2000/svg">
<path d="M15.4772 24.4269L0.85793 12.0186L0 13.0299L14.621 25.4399L14.623 25.4417C16.285 26.8402 18.3945 27.6098 20.5669 27.6102H29.9374V26.2838H20.567C18.7085 26.2838 16.8986 25.6241 15.4772 24.4269Z" fill="black"/>
<path d="M11.9177 19.6983L15.1997 22.4602C15.0784 21.8501 14.8116 21.1979 14.2846 20.5962C13.8763 20.1294 12.9998 19.1664 11.9453 17.9868C11.9178 18.5564 11.9069 19.1321 11.9177 19.6983Z" fill="black"/>
<path d="M8.26734 12.0524C7.69799 11.5448 7.19191 11.075 6.77344 10.6565C7.17908 11.2837 7.55467 11.8533 8.11418 12.5604C8.16334 12.393 8.21461 12.2239 8.26734 12.0524Z" fill="black"/>
<path d="M11.4205 14.7453C10.5677 14.0359 9.75279 13.3498 9.01504 12.7095C8.96271 12.9516 8.91045 13.2 8.86035 13.4553C9.43762 14.1181 10.1811 14.9128 11.1939 15.9333C11.261 15.5483 11.3359 15.1514 11.4205 14.7453Z" fill="black"/>
<path d="M19.3655 24.8449C19.3437 23.7787 19.1077 21.139 17.3758 19.6767C15.7404 18.2957 13.9039 16.8001 12.172 15.3682C12.1185 15.8121 12.0694 16.2815 12.0278 16.7649C12.1414 16.8774 12.2557 16.99 12.3752 17.1069C14.7216 19.4069 16.5484 21.2137 16.7585 23.7413C17.5393 24.296 18.4291 24.6709 19.3655 24.8449Z" fill="black"/>
<path d="M8.39062 16.7298L10.8009 18.7582C10.8564 18.2289 10.9301 17.6211 11.0286 16.9566C10.2703 16.0991 9.46857 15.1797 8.70867 14.2795C8.57104 15.0759 8.45678 15.9079 8.39062 16.7298Z" fill="black"/>
<path d="M7.90265 13.3121C6.71729 11.8675 5.73362 10.5608 5.34468 9.76881L5.67163 9.37722C5.67099 9.37676 5.67034 9.37588 5.67034 9.37588L6.06151 8.89154C6.06151 8.89154 7.08474 9.87252 8.55046 11.1796C8.7856 10.4861 9.05126 9.77713 9.35214 9.07172L9.90878 9.28183C9.90878 9.28183 9.58329 10.2988 9.22774 11.7782C9.96919 12.4278 10.788 13.1275 11.6272 13.8114C11.7846 13.1438 11.9664 12.4612 12.1775 11.7778L12.7254 11.9233C12.7254 11.9233 12.5135 12.9148 12.3061 14.3569C13.2058 15.0702 14.1094 15.7444 14.9458 16.2982C18.521 18.6672 20.9676 21.1451 21.2234 24.9575C22.4388 24.9575 25.1439 24.9575 27.6165 24.9575C30.932 24.9575 30.4346 21.6422 28.2795 21.1451C26.8258 20.8093 24.9581 20.038 24.9581 20.038C24.2212 19.7923 23.6183 19.2534 23.2917 18.5485C23.2917 18.5485 23.2113 18.3785 23.0761 18.0901L20.369 18.9089C20.0732 18.9981 19.7609 18.8307 19.6715 18.5353C19.582 18.2395 19.7492 17.927 20.045 17.8378L22.5954 17.0664C22.376 16.5997 22.1215 16.0564 21.8535 15.4833L19.3239 16.2485C19.0285 16.3377 18.7158 16.1707 18.6264 15.8749C18.5369 15.5791 18.7043 15.2671 19 15.1774L21.3748 14.4592C21.1221 13.9169 20.8705 13.3767 20.638 12.8748L18.2789 13.5881C17.9833 13.6778 17.6709 13.5104 17.5814 13.2145C17.4922 12.9192 17.6592 12.6067 17.9548 12.5175L20.1646 11.849C19.848 11.1594 19.6176 10.6487 19.5568 10.4904C19.2904 9.79869 18.7065 7.88109 17.3739 8.94779C15.1832 10.701 11.1867 10.1863 10.1549 8.26963C9.38138 6.83291 9.82329 5.2858 10.1549 4.0701C10.4197 3.09832 9.04933 1.58332 8.0547 2.90935C7.35145 3.84685 1.42358 10.8667 1.42358 10.8667L7.30974 15.8201C7.45476 15.1036 7.64905 14.247 7.90265 13.3121Z" fill="black"/>
</svg>
