<svg width="22" height="22" viewBox="0 0 22 22" fill="none" xmlns="http://www.w3.org/2000/svg">
<path fill-rule="evenodd" clip-rule="evenodd" d="M2.45481 10.4702C2.24195 10.683 2.07309 10.9356 1.95789 11.2137C1.84268 11.4918 1.78339 11.7898 1.78339 12.0908C1.78339 12.3918 1.84268 12.6899 1.95789 12.968C2.07309 13.246 2.24195 13.4987 2.45481 13.7115L8.28848 19.5452C8.50129 19.758 8.75395 19.9269 9.03202 20.0421C9.3101 20.1573 9.60815 20.2166 9.90915 20.2166C10.2101 20.2166 10.5082 20.1573 10.7863 20.0421C11.0643 19.9269 11.317 19.758 11.5298 19.5452L18.579 12.496C18.7918 12.2832 18.9605 12.0305 19.0757 11.7524C19.1908 11.4743 19.25 11.1763 19.25 10.8753V4.125C19.25 3.76033 19.1051 3.41059 18.8472 3.15273C18.5894 2.89487 18.2397 2.75 17.875 2.75H11.1237C10.8228 2.74994 10.5247 2.80917 10.2467 2.9243C9.96858 3.03943 9.71591 3.20821 9.50306 3.421L2.45481 10.4702ZM13.739 6.41667C12.7215 6.41667 11.9166 7.17933 11.9166 8.239C11.9166 9.29958 12.7215 10.0833 13.739 10.0833C14.7776 10.0833 15.5833 9.29958 15.5833 8.239C15.5833 7.17933 14.7766 6.41667 13.739 6.41667Z" fill="#6C6D71"/>
</svg>
