<svg width="22" height="22" viewBox="0 0 22 22" fill="none" xmlns="http://www.w3.org/2000/svg">
<g clip-path="url(#clip0_1_1474)">
<path d="M17.4166 3.66675C18.8812 3.66675 20.0783 4.81159 20.162 6.25516L20.1666 6.41675V8.08244C20.1666 8.63828 19.8437 9.07084 19.4553 9.30116L19.357 9.35448C18.7487 9.65469 18.3333 10.2798 18.3333 11.0001C18.3333 11.6689 18.6914 12.2557 19.2297 12.5765L19.357 12.6457C19.7545 12.8417 20.108 13.2466 20.1601 13.7814L20.1666 13.9177V15.5834C20.1666 17.048 19.0218 18.2451 17.5782 18.3287L17.4166 18.3334H4.58331C3.11878 18.3334 1.92162 17.1886 1.83798 15.745L1.83331 15.5834V13.9177C1.83331 13.3619 2.15628 12.9293 2.5446 12.699L2.64289 12.6457C3.25131 12.3455 3.66665 11.7204 3.66665 11.0001C3.66665 10.3312 3.30853 9.74447 2.77023 9.4237L2.64289 9.35448C2.24547 9.15842 1.89193 8.75353 1.83989 8.21879L1.83331 8.08244V6.41675C1.83331 4.95221 2.97816 3.75506 4.42173 3.67142L4.58331 3.66675H17.4166ZM9.16665 8.25008C8.66039 8.25008 8.24998 8.66049 8.24998 9.16675V12.8334C8.24998 13.3397 8.66039 13.7501 9.16665 13.7501C9.67292 13.7501 10.0833 13.3397 10.0833 12.8334V9.16675C10.0833 8.66049 9.67292 8.25008 9.16665 8.25008Z" fill="#6C6D71"/>
</g>
<defs>
<clipPath id="clip0_1_1474">
<rect width="22" height="22" fill="white"/>
</clipPath>
</defs>
</svg>
