<svg width="31" height="32" viewBox="0 0 31 32" fill="none" xmlns="http://www.w3.org/2000/svg">
<g clip-path="url(#clip0_1_374)">
<path fill-rule="evenodd" clip-rule="evenodd" d="M6.66968 15.9999C6.66968 14.9838 6.83318 14.0095 7.125 13.0958L2.01722 9.06946C1.02174 11.1559 0.460876 13.5068 0.460876 15.9999C0.460876 18.491 1.02105 20.8405 2.01515 22.9255L7.12017 18.8913C6.83111 17.9818 6.66968 17.0111 6.66968 15.9999Z" fill="#FBBC05"/>
<path fill-rule="evenodd" clip-rule="evenodd" d="M15.638 6.75553C17.7765 6.75553 19.7082 7.53775 21.2259 8.81775L25.641 4.26664C22.9505 1.84886 19.5012 0.35553 15.638 0.35553C9.64025 0.35553 4.48556 3.89615 2.01721 9.06949L7.12499 13.0958C8.3019 9.40798 11.6567 6.75553 15.638 6.75553Z" fill="#EB4335"/>
<path fill-rule="evenodd" clip-rule="evenodd" d="M15.638 25.2444C11.6567 25.2444 8.3019 22.592 7.12499 18.9042L2.01721 22.9298C4.48556 28.1038 9.64025 31.6444 15.638 31.6444C19.3398 31.6444 22.874 30.2876 25.5265 27.7454L20.6781 23.8763C19.3101 24.7659 17.5875 25.2444 15.638 25.2444Z" fill="#34A853"/>
<path fill-rule="evenodd" clip-rule="evenodd" d="M30.1252 16C30.1252 15.0755 29.9872 14.08 29.7802 13.1555H15.6379V19.2H23.7784C23.3714 21.2608 22.2634 22.8451 20.6781 23.8762L25.5265 27.7454C28.3129 25.0759 30.1252 21.0993 30.1252 16Z" fill="#4285F4"/>
</g>
<defs>
<clipPath id="clip0_1_374">
<rect width="31" height="32" fill="white"/>
</clipPath>
</defs>
</svg>
