<svg width="22" height="22" viewBox="0 0 22 22" fill="none" xmlns="http://www.w3.org/2000/svg">
<path d="M9.96838 17.766C14.4945 17.1041 17.9988 13.4318 17.9988 8.93676C17.9994 8.29343 17.927 7.65211 17.7828 7.02515C19.7164 8.17691 20.9982 10.1865 20.9982 12.473C20.9967 13.7281 20.6081 14.9522 19.8854 15.9783C19.9454 16.9271 20.2813 17.759 20.8952 18.4748C20.951 18.5394 20.9864 18.6191 20.9968 18.7038C21.0072 18.7886 20.9922 18.8745 20.9536 18.9506C20.9149 19.0267 20.8545 19.0897 20.7801 19.1314C20.7056 19.173 20.6203 19.1916 20.5352 19.1847C19.1685 19.0737 18.0507 18.7588 17.1819 18.2399C16.1865 18.7081 15.0996 18.9495 13.9996 18.9467C12.5697 18.9532 11.1688 18.5429 9.96838 17.766Z" fill="#6C6D71"/>
<path d="M6.62386 15.6542C7.22374 15.7962 7.85161 15.8722 8.49848 15.8722C12.6396 15.8722 15.997 12.7668 15.997 8.9356C15.997 5.10637 12.6396 2 8.49848 2C4.35732 2 1 5.10537 1 8.9366C1 10.8822 1.86582 12.6408 3.26154 13.9006C3.14333 14.7491 2.78025 15.5448 2.21675 16.1901C2.15675 16.2592 2.11872 16.3446 2.10753 16.4355C2.09634 16.5263 2.1125 16.6184 2.15394 16.7C2.19537 16.7815 2.26021 16.8489 2.34015 16.8935C2.42008 16.938 2.51149 16.9577 2.60268 16.95C4.30233 16.812 5.64306 16.3801 6.62386 15.6542Z" fill="#6C6D71"/>
</svg>
