<svg width="20" height="20" viewBox="0 0 20 20" fill="none" xmlns="http://www.w3.org/2000/svg">
<path d="M9.99996 5.83333C9.07946 5.83333 8.33329 5.08714 8.33329 4.16667C8.33329 3.24619 9.07946 2.5 9.99996 2.5C10.9205 2.5 11.6666 3.24619 11.6666 4.16667C11.6666 5.08714 10.9205 5.83333 9.99996 5.83333Z" fill="#1C274C"/>
<path d="M9.99996 11.6667C9.07946 11.6667 8.33329 10.9205 8.33329 10C8.33329 9.07954 9.07946 8.33337 9.99996 8.33337C10.9205 8.33337 11.6666 9.07954 11.6666 10C11.6666 10.9205 10.9205 11.6667 9.99996 11.6667Z" fill="#1C274C"/>
<path d="M9.99996 17.5C9.07946 17.5 8.33329 16.7538 8.33329 15.8333C8.33329 14.9128 9.07946 14.1666 9.99996 14.1666C10.9205 14.1666 11.6666 14.9128 11.6666 15.8333C11.6666 16.7538 10.9205 17.5 9.99996 17.5Z" fill="#1C274C"/>
</svg>
