<svg width="19" height="19" viewBox="0 0 19 19" fill="none" xmlns="http://www.w3.org/2000/svg">
<path fill-rule="evenodd" clip-rule="evenodd" d="M10.9274 4.22214C10.9274 2.76472 12.1143 1.58325 13.5783 1.58325C15.0423 1.58325 16.2292 2.76472 16.2292 4.22214C16.2292 5.67956 15.0423 6.86103 13.5783 6.86103C12.8391 6.86103 12.171 6.55964 11.6907 6.07475L8.02097 8.57327C8.05485 8.7419 8.07266 8.91606 8.07266 9.09395C8.07266 9.44624 8.003 9.78302 7.8768 10.0908L11.9006 12.7345C12.3573 12.3627 12.9417 12.1388 13.5783 12.1388C15.0423 12.1388 16.2292 13.3203 16.2292 14.7777C16.2292 16.2351 15.0423 17.4166 13.5783 17.4166C12.1143 17.4166 10.9274 16.2351 10.9274 14.7777C10.9274 14.396 11.0091 14.0326 11.156 13.7045L7.16468 11.0822C6.69909 11.4868 6.08922 11.7328 5.42175 11.7328C3.95772 11.7328 2.77087 10.5513 2.77087 9.09395C2.77087 7.63652 3.95772 6.45505 5.42175 6.45505C6.26363 6.45505 7.01304 6.84566 7.49827 7.4536L11.0548 5.03208C10.9721 4.77651 10.9274 4.50419 10.9274 4.22214Z" fill="#A4A4A4"/>
</svg>
