<svg width="15" height="15" viewBox="0 0 15 15" fill="none" xmlns="http://www.w3.org/2000/svg">
<g clip-path="url(#clip0_1_1063)">
<path opacity="0.988" fill-rule="evenodd" clip-rule="evenodd" d="M1.33302 0.864379C1.86037 0.864379 2.38771 0.864379 2.91506 0.864379C2.91017 1.34299 2.91506 1.82151 2.9297 2.29993C3.08401 2.61991 3.31349 2.68827 3.61818 2.505C3.67674 2.4466 3.72069 2.37824 3.75002 2.29993C3.76466 1.82151 3.76956 1.34299 3.76466 0.864379C6.12796 0.864379 8.49122 0.864379 10.8545 0.864379C10.8496 1.34299 10.8545 1.82151 10.8692 2.29993C11.0248 2.62037 11.2542 2.68873 11.5576 2.505C11.6198 2.44784 11.6637 2.37948 11.6895 2.29993C11.7041 1.82151 11.709 1.34299 11.7041 0.864379C12.2413 0.859498 12.7784 0.864382 13.3154 0.879027C13.9325 0.998242 14.3378 1.35469 14.5313 1.94836C14.5459 2.56352 14.5508 3.17874 14.5459 3.79407C9.83887 3.79407 5.13186 3.79407 0.424821 3.79407C0.41169 3.10916 0.426339 2.42558 0.468766 1.74328C0.607004 1.29747 0.895089 1.0045 1.33302 0.864379Z" fill="#6E6E6E"/>
<path opacity="0.993" fill-rule="evenodd" clip-rule="evenodd" d="M0.424805 4.70215C5.15136 4.70215 9.87794 4.70215 14.6045 4.70215C14.6094 7.45608 14.6045 10.21 14.5898 12.9639C14.4035 13.57 13.9982 13.9459 13.374 14.0918C9.37011 14.1113 5.36622 14.1113 1.36231 14.0918C0.846097 13.9639 0.53848 13.6368 0.439454 13.1104C0.424805 10.3076 0.419921 7.50489 0.424805 4.70215ZM3.2666 6.34277C3.65733 6.33788 4.04798 6.34277 4.43848 6.35742C4.54295 6.37793 4.62598 6.43163 4.6875 6.51855C4.73537 6.96507 4.74516 7.41428 4.7168 7.86621C4.67285 7.98829 4.58985 8.07129 4.46777 8.11523C4.04786 8.13478 3.62792 8.13478 3.20801 8.11523C3.06088 8.06566 2.97788 7.96313 2.95898 7.80762C2.93944 7.42676 2.93944 7.0459 2.95898 6.66504C2.98869 6.48404 3.09123 6.37661 3.2666 6.34277ZM6.75293 6.34277C7.14366 6.33788 7.53431 6.34277 7.9248 6.35742C8.02928 6.37793 8.1123 6.43163 8.17383 6.51855C8.22129 6.97556 8.23104 7.43455 8.20312 7.89551C8.18291 7.97449 8.13896 8.03798 8.07129 8.08594C7.61429 8.1334 7.15529 8.14315 6.69434 8.11523C6.56042 8.06915 6.47742 7.97637 6.44531 7.83691C6.42577 7.4463 6.42577 7.05565 6.44531 6.66504C6.47502 6.48404 6.57756 6.37661 6.75293 6.34277ZM10.2686 6.34277C10.6691 6.33788 11.0694 6.34277 11.4697 6.35742C11.6479 6.39894 11.7407 6.51123 11.748 6.69434C11.7676 7.06544 11.7676 7.43651 11.748 7.80762C11.75 7.965 11.6768 8.06754 11.5283 8.11523C11.0889 8.13478 10.6494 8.13478 10.21 8.11523C10.0977 8.08105 10.0244 8.0078 9.99023 7.89551C9.97069 7.45605 9.97069 7.0166 9.99023 6.57715C10.0535 6.45981 10.1463 6.38171 10.2686 6.34277ZM3.20801 10.3271C3.63779 10.3223 4.06749 10.3271 4.49707 10.3418C4.60937 10.376 4.68261 10.4492 4.7168 10.5615C4.73634 10.9814 4.73634 11.4014 4.7168 11.8213C4.66708 11.9881 4.55476 12.0809 4.37988 12.0996C4.00878 12.1192 3.63771 12.1192 3.2666 12.0996C3.08593 12.0752 2.98339 11.9727 2.95898 11.792C2.93944 11.4111 2.93944 11.0303 2.95898 10.6494C2.98368 10.4933 3.06671 10.3859 3.20801 10.3271ZM6.66504 10.3271C7.10461 10.3223 7.54406 10.3271 7.9834 10.3418C8.09569 10.376 8.16894 10.4492 8.20312 10.5615C8.22267 11.001 8.22267 11.4404 8.20312 11.8799C8.16223 12.0184 8.06947 12.0916 7.9248 12.0996C7.53419 12.1192 7.14355 12.1192 6.75293 12.0996C6.57226 12.0752 6.46972 11.9727 6.44531 11.792C6.42577 11.4014 6.42577 11.0107 6.44531 10.6201C6.48085 10.4921 6.55409 10.3944 6.66504 10.3271ZM10.21 10.3271C10.6397 10.3223 11.0694 10.3271 11.499 10.3418C11.6462 10.3914 11.7292 10.4939 11.748 10.6494C11.7676 11.0303 11.7676 11.4111 11.748 11.792C11.7236 11.9727 11.6211 12.0752 11.4404 12.0996C11.0498 12.1192 10.6592 12.1192 10.2686 12.0996C10.1641 12.0791 10.0811 12.0254 10.0195 11.9385C9.97163 11.4822 9.96187 11.0232 9.99023 10.5615C10.0299 10.4487 10.1031 10.3706 10.21 10.3271Z" fill="#6E6E6E"/>
</g>
<defs>
<clipPath id="clip0_1_1063">
<rect width="15" height="15" fill="white"/>
</clipPath>
</defs>
</svg>
