<svg width="16" height="16" viewBox="0 0 16 16" fill="none" xmlns="http://www.w3.org/2000/svg">
<path fill-rule="evenodd" clip-rule="evenodd" d="M1.78531 7.61467C1.6305 7.76944 1.50769 7.95319 1.42391 8.15543C1.34012 8.35766 1.297 8.57443 1.297 8.79333C1.297 9.01224 1.34012 9.229 1.42391 9.43124C1.50769 9.63348 1.6305 9.81723 1.78531 9.972L6.02797 14.2147C6.18274 14.3695 6.3665 14.4923 6.56873 14.5761C6.77097 14.6599 6.98773 14.703 7.20664 14.703C7.42555 14.703 7.64231 14.6599 7.84455 14.5761C8.04679 14.4923 8.23054 14.3695 8.38531 14.2147L13.512 9.088C13.6667 8.9332 13.7895 8.74944 13.8732 8.5472C13.9569 8.34497 14 8.12822 14 7.90933V3C14 2.73478 13.8946 2.48043 13.7071 2.29289C13.5195 2.10536 13.2652 2 13 2H8.08997C7.87109 1.99996 7.65434 2.04303 7.4521 2.12677C7.24987 2.2105 7.0661 2.33325 6.91131 2.488L1.78531 7.61467ZM9.99197 4.66667C9.25197 4.66667 8.66664 5.22133 8.66664 5.992C8.66664 6.76333 9.25197 7.33333 9.99197 7.33333C10.7473 7.33333 11.3333 6.76333 11.3333 5.992C11.3333 5.22133 10.7466 4.66667 9.99197 4.66667Z" fill="#6C6D71"/>
</svg>
