<svg width="16" height="16" viewBox="0 0 16 16" fill="none" xmlns="http://www.w3.org/2000/svg">
<path d="M13.5132 10.8433L13.9836 8.12339C14.101 7.44405 13.5786 6.82272 12.89 6.82272H9.43589C9.09356 6.82272 8.83289 6.51544 8.88829 6.17724L9.33009 3.48087C9.40183 3.04282 9.38136 2.59459 9.26989 2.16493C9.17756 1.80901 8.90296 1.52322 8.54183 1.40721L8.44516 1.37615C8.22689 1.30604 7.98869 1.32235 7.78289 1.42151C7.55643 1.53066 7.39069 1.72974 7.32929 1.96651L7.01216 3.18908C6.91123 3.57807 6.76429 3.95355 6.57475 4.30833C6.29785 4.8267 5.86973 5.24156 5.4247 5.62505L4.46555 6.45158C4.19511 6.68465 4.05308 7.03365 4.08385 7.38952L4.6253 13.6513C4.67496 14.2257 5.15516 14.6666 5.73101 14.6666H8.83009C11.151 14.6666 13.1316 13.0495 13.5132 10.8433Z" fill="#6C6D71"/>
<path fill-rule="evenodd" clip-rule="evenodd" d="M1.97845 6.32347C2.24595 6.31193 2.47507 6.51317 2.49814 6.77995L3.14587 14.2709C3.18748 14.7521 2.80845 15.1669 2.32447 15.1669C1.86859 15.1669 1.5 14.797 1.5 14.342V6.82302C1.5 6.55525 1.71093 6.33502 1.97845 6.32347Z" fill="#6C6D71"/>
</svg>
