<svg width="16" height="16" viewBox="0 0 16 16" fill="none" xmlns="http://www.w3.org/2000/svg">
<path d="M1.74402 7.56796C1.74402 7.88796 1.87735 8.13329 2.14402 8.30396L7.50402 11.872C7.64269 11.968 7.79202 12.0213 7.95202 12.032C8.11202 12.0426 8.26669 12.0053 8.41602 11.92C8.56535 11.8346 8.68268 11.7226 8.76802 11.584C8.85335 11.4453 8.89602 11.296 8.89602 11.136V9.34396C10.048 9.34396 11.0827 9.67463 12 10.336C12.9174 10.9973 13.5627 11.856 13.936 12.912C14.1494 12.3146 14.256 11.7226 14.256 11.136C14.256 10.1653 14.016 9.26929 13.536 8.44796C13.056 7.62663 12.4054 6.97596 11.584 6.49596C10.7627 6.01596 9.86668 5.77596 8.89602 5.77596V3.98396C8.89602 3.82396 8.85335 3.67463 8.76802 3.53596C8.68268 3.39729 8.56535 3.28529 8.41602 3.19996C8.26669 3.11463 8.11202 3.07729 7.95202 3.08796C7.79202 3.09863 7.64269 3.15196 7.50402 3.24796L2.14402 6.81596C1.87735 6.98663 1.74402 7.23729 1.74402 7.56796Z" fill="#6C6D71"/>
</svg>
