<svg width="13" height="13" viewBox="0 0 13 13" fill="none" xmlns="http://www.w3.org/2000/svg">
<g clip-path="url(#clip0_1_687)">
<path opacity="0.997" fill-rule="evenodd" clip-rule="evenodd" d="M2.62793 -0.0126953C5.20084 -0.0126953 7.77377 -0.0126953 10.3467 -0.0126953C10.8651 0.137589 11.1909 0.47613 11.3242 1.00293C11.3412 4.76074 11.3412 8.51855 11.3242 12.2764C11.2216 12.6456 10.9888 12.8826 10.626 12.9873C10.4821 12.9873 10.3382 12.9873 10.1943 12.9873C10.0921 12.9487 9.99058 12.9021 9.88965 12.8477C8.90393 12.1136 7.9137 11.3857 6.91895 10.6641C6.63119 10.5117 6.34342 10.5117 6.05566 10.6641C5.09928 11.3665 4.14291 12.069 3.18652 12.7715C3.06 12.8643 2.92459 12.9362 2.78027 12.9873C2.63639 12.9873 2.49251 12.9873 2.34863 12.9873C1.9851 12.8819 1.75236 12.6449 1.65039 12.2764C1.63346 8.51855 1.63346 4.76074 1.65039 1.00293C1.78368 0.47613 2.10953 0.137589 2.62793 -0.0126953Z" fill="#666666"/>
</g>
<defs>
<clipPath id="clip0_1_687">
<rect width="13" height="13" fill="white"/>
</clipPath>
</defs>
</svg>
