<svg width="15" height="15" viewBox="0 0 15 15" fill="none" xmlns="http://www.w3.org/2000/svg">
<path d="M6.85498 11.7305C9.68436 11.3167 11.875 9.02111 11.875 6.21111C11.8754 5.80895 11.8301 5.40804 11.74 5.01611C12.9487 5.73611 13.75 6.99236 13.75 8.42174C13.7491 9.20633 13.5062 9.97155 13.0544 10.613C13.0919 11.2061 13.3019 11.7261 13.6856 12.1736C13.7205 12.214 13.7427 12.2638 13.7492 12.3168C13.7557 12.3697 13.7462 12.4234 13.7221 12.471C13.698 12.5186 13.6602 12.558 13.6136 12.584C13.5671 12.6101 13.5138 12.6217 13.4606 12.6174C12.6062 12.548 11.9075 12.3511 11.3644 12.0267C10.7421 12.3194 10.0626 12.4704 9.37498 12.4686C8.48111 12.4726 7.60542 12.2161 6.85498 11.7305Z" fill="#666666"/>
<path d="M4.76562 10.4106C5.14062 10.4994 5.53312 10.5469 5.9375 10.5469C8.52625 10.5469 10.625 8.60563 10.625 6.21063C10.625 3.81688 8.52625 1.875 5.9375 1.875C3.34875 1.875 1.25 3.81625 1.25 6.21125C1.25 7.4275 1.79125 8.52688 2.66375 9.31437C2.58985 9.84482 2.36288 10.3422 2.01062 10.7456C1.97312 10.7888 1.94934 10.8422 1.94235 10.899C1.93535 10.9558 1.94545 11.0133 1.97136 11.0643C1.99726 11.1153 2.03779 11.1575 2.08776 11.1853C2.13773 11.2131 2.19487 11.2254 2.25187 11.2206C3.31437 11.1344 4.1525 10.8644 4.76562 10.4106Z" fill="#666666"/>
</svg>
