<svg width="20" height="20" viewBox="0 0 20 20" fill="none" xmlns="http://www.w3.org/2000/svg">
<path d="M16.75 7.68434C15.2417 7.68434 14.625 6.61767 15.375 5.30934C15.8084 4.551 15.55 3.58434 14.7917 3.151L13.35 2.326C12.6917 1.93434 11.8417 2.16767 11.45 2.82601L11.3584 2.98434C10.6084 4.29267 9.37502 4.29267 8.61669 2.98434L8.52502 2.82601C8.15002 2.16767 7.30002 1.93434 6.64169 2.326L5.20002 3.151C4.44169 3.58434 4.18335 4.55934 4.61669 5.31767C5.37502 6.61767 4.75835 7.68434 3.25002 7.68434C2.38335 7.68434 1.66669 8.39267 1.66669 9.26767V10.7343C1.66669 11.601 2.37502 12.3177 3.25002 12.3177C4.75835 12.3177 5.37502 13.3843 4.61669 14.6927C4.18335 15.451 4.44169 16.4177 5.20002 16.851L6.64169 17.676C7.30002 18.0677 8.15002 17.8343 8.54169 17.176L8.63335 17.0177C9.38335 15.7093 10.6167 15.7093 11.375 17.0177L11.4667 17.176C11.8584 17.8343 12.7084 18.0677 13.3667 17.676L14.8084 16.851C15.5667 16.4177 15.825 15.4427 15.3917 14.6927C14.6334 13.3843 15.25 12.3177 16.7584 12.3177C17.625 12.3177 18.3417 11.6093 18.3417 10.7343V9.26767C18.3334 8.401 17.625 7.68434 16.75 7.68434ZM10 12.7093C8.50835 12.7093 7.29169 11.4927 7.29169 10.001C7.29169 8.50934 8.50835 7.29267 10 7.29267C11.4917 7.29267 12.7084 8.50934 12.7084 10.001C12.7084 11.4927 11.4917 12.7093 10 12.7093Z" fill="#6E6E6E"/>
</svg>
