<svg width="17" height="16" viewBox="0 0 17 16" fill="none" xmlns="http://www.w3.org/2000/svg">
<path fill-rule="evenodd" clip-rule="evenodd" d="M8.50024 0L10.5125 1.31211L12.9148 1.29623L13.8983 3.48797L15.9277 4.77336L15.5702 7.14889L16.5825 9.32744L14.9974 11.1325L14.6712 13.5126L12.3618 14.1741L10.8007 16L8.50024 15.308L6.19979 16L4.63866 14.1741L2.32926 13.5126L2.0031 11.1325L0.417969 9.32744L1.43034 7.14889L1.07275 4.77336L3.10222 3.48797L4.0857 1.29623L6.48794 1.31211L8.50024 0ZM10.6376 5.74636L7.42262 9.15985L6.36284 8.03465C6.11548 7.77202 5.70206 7.75965 5.43944 8.007C5.17682 8.25435 5.16444 8.66777 5.4118 8.93039L6.9471 10.5605C7.20499 10.8343 7.64025 10.8343 7.89814 10.5605L11.5887 6.64211C11.836 6.37949 11.8237 5.96607 11.561 5.71871C11.2984 5.47136 10.885 5.48374 10.6376 5.74636Z" fill="#3897F0"/>
</svg>
