<svg width="14" height="14" viewBox="0 0 14 14" fill="none" xmlns="http://www.w3.org/2000/svg">
<path fill-rule="evenodd" clip-rule="evenodd" d="M1.56216 6.66283C1.4267 6.79826 1.31925 6.95904 1.24593 7.136C1.17262 7.31296 1.13489 7.50262 1.13489 7.69417C1.13489 7.88571 1.17262 8.07538 1.24593 8.25234C1.31925 8.42929 1.4267 8.59008 1.56216 8.7255L5.27449 12.4378C5.40992 12.5733 5.5707 12.6807 5.74766 12.7541C5.92462 12.8274 6.11428 12.8651 6.30583 12.8651C6.49737 12.8651 6.68704 12.8274 6.864 12.7541C7.04095 12.6807 7.20174 12.5733 7.33716 12.4378L11.823 7.952C11.9584 7.81655 12.0658 7.65576 12.1391 7.4788C12.2123 7.30185 12.25 7.11219 12.25 6.92067V2.625C12.25 2.39294 12.1578 2.17038 11.9937 2.00628C11.8296 1.84219 11.6071 1.75 11.375 1.75H7.07874C6.88722 1.74996 6.69756 1.78766 6.52061 1.86092C6.34365 1.93419 6.18286 2.04159 6.04741 2.177L1.56216 6.66283ZM8.74299 4.08333C8.09549 4.08333 7.58333 4.56867 7.58333 5.243C7.58333 5.91792 8.09549 6.41667 8.74299 6.41667C9.40391 6.41667 9.91666 5.91792 9.91666 5.243C9.91666 4.56867 9.40333 4.08333 8.74299 4.08333Z" fill="#6C6D71"/>
</svg>
