<svg width="14" height="14" viewBox="0 0 14 14" fill="none" xmlns="http://www.w3.org/2000/svg">
<path d="M6.34351 11.3058C9.22374 10.8846 11.4537 8.5477 11.4537 5.68718C11.4542 5.27779 11.4081 4.86968 11.3163 4.4707C12.5468 5.20365 13.3624 6.48248 13.3624 7.93755C13.3616 8.73625 13.1143 9.51522 12.6543 10.1682C12.6925 10.772 12.9063 11.3013 13.2969 11.7569C13.3325 11.7979 13.355 11.8487 13.3616 11.9026C13.3682 11.9565 13.3586 12.0112 13.3341 12.0596C13.3095 12.1081 13.2711 12.1481 13.2237 12.1747C13.1763 12.2012 13.122 12.213 13.0679 12.2086C12.1981 12.138 11.4868 11.9376 10.9339 11.6074C10.3005 11.9053 9.60882 12.0589 8.9088 12.0572C7.99886 12.0613 7.10744 11.8002 6.34351 11.3058Z" fill="#6C6D71"/>
<path d="M4.21517 9.96201C4.59691 10.0524 4.99647 10.1007 5.40811 10.1007C8.0434 10.1007 10.1799 8.12456 10.1799 5.68651C10.1799 3.24973 8.0434 1.27295 5.40811 1.27295C2.77283 1.27295 0.636353 3.24909 0.636353 5.68715C0.636353 6.92526 1.18733 8.0444 2.07552 8.84605C2.00029 9.38603 1.76924 9.89236 1.41065 10.303C1.37247 10.347 1.34827 10.4014 1.34114 10.4591C1.33402 10.5169 1.34431 10.5755 1.37068 10.6275C1.39704 10.6794 1.4383 10.7223 1.48917 10.7506C1.54004 10.7789 1.59821 10.7915 1.65624 10.7866C2.73784 10.6988 3.59103 10.4239 4.21517 9.96201Z" fill="#6C6D71"/>
</svg>
