<svg width="14" height="14" viewBox="0 0 14 14" fill="none" xmlns="http://www.w3.org/2000/svg">
<path opacity="0.987" fill-rule="evenodd" clip-rule="evenodd" d="M4.63477 1.98218C5.9287 1.89733 6.83561 2.44421 7.35547 3.6228C7.68007 4.69881 7.43854 5.62396 6.63086 6.3982C5.83526 7.01991 4.96027 7.15663 4.00586 6.80835C2.75978 6.17089 2.28127 5.16371 2.57031 3.78687C2.90803 2.77892 3.59619 2.17736 4.63477 1.98218Z" fill="#6C6D71"/>
<path opacity="0.985" fill-rule="evenodd" clip-rule="evenodd" d="M9.93944 3.48614C10.8974 3.39747 11.5855 3.78028 12.0039 4.63458C12.3107 5.59183 12.06 6.36202 11.2519 6.94513C10.3888 7.38235 9.60041 7.27754 8.88671 6.63067C8.38845 6.03504 8.26997 5.36966 8.53124 4.63458C8.80875 4.01516 9.27816 3.63235 9.93944 3.48614Z" fill="#6C6D71"/>
<path opacity="0.993" fill-rule="evenodd" clip-rule="evenodd" d="M4.52538 7.66997C6.44168 7.56155 7.91371 8.30894 8.9414 9.91216C9.38264 10.6745 9.58315 11.4948 9.54296 12.3731C9.50451 12.5118 9.41794 12.6075 9.28319 12.6602C6.4212 12.6784 3.55924 12.6784 0.697255 12.6602C0.574208 12.6101 0.487619 12.5235 0.437489 12.4004C0.421307 10.486 1.24618 9.06871 2.9121 8.14848C3.42668 7.89922 3.96445 7.7397 4.52538 7.66997Z" fill="#6C6D71"/>
<path opacity="0.983" fill-rule="evenodd" clip-rule="evenodd" d="M10.0762 7.69727C11.7406 7.70826 12.8571 8.49209 13.4258 10.0488C13.5373 10.4152 13.5738 10.7888 13.5352 11.1699C13.4825 11.3047 13.3868 11.3912 13.248 11.4297C12.2819 11.4434 11.3158 11.4479 10.3496 11.4434C10.1445 10.1486 9.56113 9.06396 8.59961 8.18945C8.62982 8.15139 8.6663 8.11948 8.70898 8.09375C9.14162 7.86887 9.59736 7.73672 10.0762 7.69727Z" fill="#6C6D71"/>
</svg>
