<svg width="21" height="21" viewBox="0 0 21 21" fill="none" xmlns="http://www.w3.org/2000/svg">
<path opacity="0.985" fill-rule="evenodd" clip-rule="evenodd" d="M8.18263 3.01477C9.79015 2.99056 10.9591 3.68782 11.6895 5.10657C12.327 6.87057 11.91 8.32662 10.4385 9.47473C8.96065 10.3301 7.53876 10.248 6.17286 9.22864C4.99116 8.09054 4.66984 6.74383 5.209 5.1886C5.79626 3.90754 6.78748 3.18293 8.18263 3.01477Z" fill="black"/>
<path opacity="0.973" fill-rule="evenodd" clip-rule="evenodd" d="M16.0986 7.40356C16.5092 7.33745 16.8442 7.46049 17.1035 7.7727C17.1753 7.88533 17.2163 8.00838 17.2266 8.14184C17.2471 8.48338 17.2539 8.82516 17.2471 9.16723C17.6301 9.16043 18.013 9.16723 18.3955 9.18774C18.7975 9.33068 18.9889 9.61779 18.9697 10.0491C18.9862 10.4946 18.7811 10.7817 18.3545 10.9104C17.9856 10.9309 17.6165 10.9377 17.2471 10.9309C17.2539 11.273 17.2471 11.6148 17.2266 11.9563C17.127 12.4317 16.8331 12.6778 16.3447 12.6946C15.8749 12.6826 15.581 12.4502 15.4629 11.9973C15.4424 11.6421 15.4356 11.2866 15.4424 10.9309C15.0289 10.9483 14.6188 10.9277 14.2119 10.8694C13.8594 10.7116 13.6817 10.4382 13.6787 10.0491C13.6966 9.62197 13.9017 9.33487 14.2939 9.18774C14.6765 9.16723 15.0593 9.16043 15.4424 9.16723C15.4262 8.75437 15.4467 8.34421 15.5039 7.93677C15.6099 7.64912 15.8081 7.4714 16.0986 7.40356Z" fill="black"/>
<path opacity="0.988" fill-rule="evenodd" clip-rule="evenodd" d="M7.85449 11.3409C10.5169 11.2058 12.5882 12.2312 14.0684 14.4171C14.6296 15.3087 14.9167 16.2794 14.9297 17.3292C14.8329 17.672 14.6073 17.8702 14.2529 17.9239C10.3838 17.9513 6.51463 17.9513 2.64551 17.9239C2.22178 17.8145 1.98936 17.5411 1.94824 17.1036C2.26006 14.8659 3.39482 13.198 5.35254 12.0997C6.14767 11.7001 6.98164 11.4471 7.85449 11.3409Z" fill="black"/>
</svg>
