<svg width="49" height="49" viewBox="0 0 49 49" fill="none" xmlns="http://www.w3.org/2000/svg">
<path d="M29.1237 32.5395L25.6174 29.0623C24.0059 27.4643 23.2 26.6652 22.2723 26.3655C21.4562 26.1017 20.5779 26.1017 19.7617 26.3655C18.834 26.6652 18.0282 27.4643 16.4166 29.0623L8.25223 37.2853M29.1237 32.5395L29.8205 31.8482C31.4661 30.2165 32.2887 29.4006 33.2328 29.1029C34.0629 28.841 34.9549 28.8512 35.7789 29.1321C36.7157 29.4517 37.5195 30.2861 39.1269 31.9551L40.8333 33.6877M29.1237 32.5395L37.1991 40.7574M8.25223 37.2853C8.31493 37.817 8.42353 38.2345 8.61169 38.6038C9.00316 39.3721 9.62785 39.9969 10.3962 40.3882C11.2696 40.8333 12.4131 40.8333 14.7 40.8333H34.3C35.5684 40.8333 36.4852 40.8333 37.1991 40.7574M8.25223 37.2853C8.16663 36.5593 8.16663 35.6201 8.16663 34.3V14.7C8.16663 12.4131 8.16663 11.2697 8.61169 10.3962C9.00316 9.62787 9.62785 9.0032 10.3962 8.61173C11.2696 8.16667 12.4131 8.16667 14.7 8.16667H22.4583M37.1991 40.7574C37.7722 40.6963 38.2149 40.5865 38.6038 40.3882C39.3721 39.9969 39.9968 39.3721 40.3882 38.6038C40.8333 37.7304 40.8333 36.5869 40.8333 34.3V26.5417M36.75 18.375V12.25M36.75 12.25V6.125M36.75 12.25H42.875M36.75 12.25H30.625" stroke="#F2615A" stroke-width="3" stroke-linecap="round" stroke-linejoin="round"/>
</svg>
