<svg width="15" height="15" viewBox="0 0 15 15" fill="none" xmlns="http://www.w3.org/2000/svg">
<g clip-path="url(#clip0_1_1762)">
<path opacity="0.988" fill-rule="evenodd" clip-rule="evenodd" d="M1.33302 0.864379C1.86037 0.864379 2.38771 0.864379 2.91506 0.864379C2.91017 1.34299 2.91506 1.82151 2.9297 2.29993C3.08401 2.61991 3.31349 2.68827 3.61818 2.505C3.67674 2.4466 3.72069 2.37824 3.75002 2.29993C3.76466 1.82151 3.76956 1.34299 3.76466 0.864379C6.12796 0.864379 8.49122 0.864379 10.8545 0.864379C10.8496 1.34299 10.8545 1.82151 10.8692 2.29993C11.0248 2.62037 11.2542 2.68873 11.5576 2.505C11.6198 2.44784 11.6637 2.37948 11.6895 2.29993C11.7041 1.82151 11.709 1.34299 11.7041 0.864379C12.2413 0.859498 12.7784 0.864382 13.3154 0.879027C13.9325 0.998242 14.3378 1.35469 14.5313 1.94836C14.5459 2.56352 14.5508 3.17874 14.5459 3.79407C9.83887 3.79407 5.13186 3.79407 0.424821 3.79407C0.41169 3.10916 0.426339 2.42558 0.468766 1.74328C0.607004 1.29747 0.895089 1.0045 1.33302 0.864379Z" fill="#6E6E6E"/>
<path opacity="0.993" fill-rule="evenodd" clip-rule="evenodd" d="M0.424683 4.70215C5.15124 4.70215 9.87782 4.70215 14.6044 4.70215C14.6093 7.45608 14.6044 10.21 14.5897 12.9639C14.4034 13.57 13.9981 13.9459 13.3739 14.0918C9.36999 14.1113 5.3661 14.1113 1.36218 14.0918C0.845975 13.9639 0.538358 13.6368 0.439331 13.1104C0.424683 10.3076 0.419799 7.50489 0.424683 4.70215ZM3.26648 6.34277C3.65721 6.33788 4.04786 6.34277 4.43835 6.35742C4.54283 6.37793 4.62585 6.43163 4.68738 6.51855C4.73525 6.96507 4.74503 7.41428 4.71668 7.86621C4.67273 7.98829 4.58973 8.07129 4.46765 8.11523C4.04774 8.13478 3.6278 8.13478 3.20789 8.11523C3.06076 8.06566 2.97776 7.96313 2.95886 7.80762C2.93932 7.42676 2.93932 7.0459 2.95886 6.66504C2.98857 6.48404 3.09111 6.37661 3.26648 6.34277ZM6.75281 6.34277C7.14354 6.33788 7.53418 6.34277 7.92468 6.35742C8.02916 6.37793 8.11218 6.43163 8.17371 6.51855C8.22117 6.97556 8.23092 7.43455 8.203 7.89551C8.18279 7.97449 8.13884 8.03798 8.07117 8.08594C7.61416 8.1334 7.15517 8.14315 6.69421 8.11523C6.5603 8.06915 6.4773 7.97637 6.44519 7.83691C6.42565 7.4463 6.42565 7.05565 6.44519 6.66504C6.4749 6.48404 6.57744 6.37661 6.75281 6.34277ZM10.2684 6.34277C10.669 6.33788 11.0693 6.34277 11.4696 6.35742C11.6478 6.39894 11.7406 6.51123 11.7479 6.69434C11.7675 7.06544 11.7675 7.43651 11.7479 7.80762C11.7499 7.965 11.6767 8.06754 11.5282 8.11523C11.0887 8.13478 10.6493 8.13478 10.2098 8.11523C10.0975 8.08105 10.0243 8.0078 9.99011 7.89551C9.97057 7.45605 9.97057 7.0166 9.99011 6.57715C10.0534 6.45981 10.1462 6.38171 10.2684 6.34277ZM3.20789 10.3271C3.63767 10.3223 4.06737 10.3271 4.49695 10.3418C4.60924 10.376 4.68249 10.4492 4.71668 10.5615C4.73622 10.9814 4.73622 11.4014 4.71668 11.8213C4.66696 11.9881 4.55463 12.0809 4.37976 12.0996C4.00866 12.1192 3.63758 12.1192 3.26648 12.0996C3.08581 12.0752 2.98327 11.9727 2.95886 11.792C2.93932 11.4111 2.93932 11.0303 2.95886 10.6494C2.98356 10.4933 3.06659 10.3859 3.20789 10.3271ZM6.66492 10.3271C7.10449 10.3223 7.54394 10.3271 7.98328 10.3418C8.09557 10.376 8.16881 10.4492 8.203 10.5615C8.22254 11.001 8.22254 11.4404 8.203 11.8799C8.1621 12.0184 8.06935 12.0916 7.92468 12.0996C7.53407 12.1192 7.14342 12.1192 6.75281 12.0996C6.57213 12.0752 6.46959 11.9727 6.44519 11.792C6.42565 11.4014 6.42565 11.0107 6.44519 10.6201C6.48073 10.4921 6.55397 10.3944 6.66492 10.3271ZM10.2098 10.3271C10.6396 10.3223 11.0693 10.3271 11.4989 10.3418C11.646 10.3914 11.729 10.4939 11.7479 10.6494C11.7675 11.0303 11.7675 11.4111 11.7479 11.792C11.7235 11.9727 11.621 12.0752 11.4403 12.0996C11.0497 12.1192 10.659 12.1192 10.2684 12.0996C10.164 12.0791 10.0809 12.0254 10.0194 11.9385C9.97151 11.4822 9.96175 11.0232 9.99011 10.5615C10.0298 10.4487 10.103 10.3706 10.2098 10.3271Z" fill="#6E6E6E"/>
</g>
<defs>
<clipPath id="clip0_1_1762">
<rect width="15" height="15" fill="white"/>
</clipPath>
</defs>
</svg>
