<svg width="20" height="20" viewBox="0 0 20 20" fill="none" xmlns="http://www.w3.org/2000/svg">
<path opacity="0.988" fill-rule="evenodd" clip-rule="evenodd" d="M14.1601 15.6445C13.3773 15.6611 12.5961 15.6416 11.8164 15.586C11.1478 15.3731 10.7377 14.9239 10.5859 14.2383C10.0065 11.224 11.2239 10.0065 14.2383 10.586C15.0224 10.7711 15.4846 11.2594 15.625 12.0508C15.651 12.7539 15.651 13.457 15.625 14.1602C15.4682 14.9875 14.98 15.4823 14.1601 15.6445Z" fill="white"/>
<path opacity="0.988" fill-rule="evenodd" clip-rule="evenodd" d="M7.98828 15.6445C7.21824 15.6616 6.45 15.6421 5.6836 15.5859C4.95785 15.381 4.53465 14.9057 4.41407 14.1601C4.38801 13.457 4.38801 12.7539 4.41407 12.0508C4.55442 11.2594 5.01664 10.7711 5.80078 10.5859C6.55598 10.5599 7.31121 10.5599 8.06641 10.5859C8.81512 10.7617 9.27735 11.2239 9.45313 11.9726C9.49035 12.7819 9.47735 13.5892 9.41407 14.3945C9.18512 15.0991 8.70985 15.5158 7.98828 15.6445Z" fill="white"/>
<path opacity="0.988" fill-rule="evenodd" clip-rule="evenodd" d="M14.2383 9.47262C11.2245 10.033 10.007 8.80906 10.5859 5.80074C10.7709 5.01684 11.2591 4.55461 12.0508 4.41402C12.7539 4.38797 13.457 4.38797 14.1602 4.41402C14.987 4.56375 15.4753 5.05203 15.625 5.87887C15.6611 6.6616 15.6481 7.44285 15.5859 8.22262C15.3663 8.89168 14.917 9.30836 14.2383 9.47262Z" fill="white"/>
<path opacity="0.988" fill-rule="evenodd" clip-rule="evenodd" d="M8.06641 9.47265C7.3111 9.47917 6.55587 9.47265 5.80079 9.45312C5.01665 9.26796 4.55442 8.77968 4.41407 7.98828C4.38802 7.28515 4.38802 6.58203 4.41407 5.8789C4.5638 5.05206 5.05208 4.56378 5.87891 4.41406C6.58204 4.388 7.28516 4.388 7.98829 4.41406C8.77993 4.55464 9.26821 5.01687 9.45313 5.80078C9.48993 6.62277 9.47688 7.44308 9.41407 8.26171C9.17841 8.90773 8.72919 9.3114 8.06641 9.47265Z" fill="white"/>
</svg>
