<svg width="21" height="20" viewBox="0 0 21 20" fill="none" xmlns="http://www.w3.org/2000/svg">
<path opacity="0.981" fill-rule="evenodd" clip-rule="evenodd" d="M9.29003 1.81641C11.5772 3.08444 12.9923 4.95945 13.5352 7.44141C13.7755 7.15281 13.9396 6.8273 14.0273 6.46484C14.0713 5.94527 14.1054 5.42445 14.1299 4.90234C16.5353 7.54289 17.2394 10.5507 16.2422 13.9258C15.3834 15.9481 13.9 17.3544 11.792 18.1445C12.1943 17.5216 12.5429 16.8705 12.8379 16.1914C13.844 13.123 13.1194 10.4929 10.6641 8.30078C11.0976 9.57031 11.0702 10.8334 10.582 12.0898C10.3744 12.5243 10.1557 12.954 9.92578 13.3789C9.83271 12.9285 9.75068 12.4727 9.67968 12.0117C9.56254 11.5077 9.35746 11.0389 9.06445 10.6055C9.02721 10.5297 8.96568 10.4907 8.87988 10.4883C8.88332 11.2009 8.77397 11.8975 8.55175 12.5781C8.36718 13.0534 8.18261 13.5286 7.99804 14.0039C7.66832 15.2009 7.83238 16.3337 8.49023 17.4023C8.64744 17.6497 8.8047 17.8971 8.96191 18.1445C6.26489 17.3741 4.69948 15.6553 4.26562 12.9883C4.17391 12.0203 4.31065 11.0828 4.67578 10.1758C5.10263 9.43809 5.45811 8.66984 5.74218 7.87109C5.89214 7.31336 6.02888 6.75348 6.15234 6.19141C6.57053 6.77973 6.87815 7.41777 7.07519 8.10547C8.23884 6.63773 8.94296 4.9841 9.18749 3.14453C9.23917 2.70293 9.27334 2.26022 9.29003 1.81641Z" fill="black"/>
</svg>
