<svg width="20" height="20" viewBox="0 0 20 20" fill="none" xmlns="http://www.w3.org/2000/svg">
<path d="M19.2692 11.7539C19.2708 11.8437 19.2452 11.9319 19.1958 12.007C19.1464 12.082 19.0755 12.1404 18.9924 12.1745C18.9093 12.2085 18.8178 12.2167 18.73 12.198C18.6421 12.1792 18.562 12.1343 18.5 12.0693L16.4346 10L11.6616 14.0962C11.5397 14.2247 11.393 14.327 11.2303 14.3969C11.0677 14.4669 10.8925 14.5029 10.7154 14.5029C10.5383 14.5029 10.3631 14.4669 10.2005 14.3969C10.0378 14.327 9.89107 14.2247 9.76924 14.0962L6.88847 10.8116L1.75771 15.3116C1.7171 15.3544 1.66819 15.3885 1.61397 15.4118C1.55974 15.4351 1.50134 15.4472 1.44232 15.4472C1.3833 15.4472 1.3249 15.4351 1.27068 15.4118C1.21645 15.3885 1.16755 15.3544 1.12694 15.3116L0.900013 15.0847C0.857184 15.0441 0.823075 14.9951 0.799765 14.9409C0.776456 14.8867 0.764435 14.8283 0.764435 14.7693C0.764435 14.7103 0.776456 14.6519 0.799765 14.5976C0.823075 14.5434 0.857184 14.4945 0.900013 14.4539L5.94617 7.56928C6.06799 7.44079 6.21472 7.33846 6.37738 7.26854C6.54005 7.19861 6.71526 7.16254 6.89232 7.16254C7.06938 7.16254 7.24459 7.19861 7.40726 7.26854C7.56993 7.33846 7.71665 7.44079 7.83847 7.56928L10.7192 10.45L13.6462 7.07313L11.7539 5.36159C11.6923 5.29491 11.6508 5.21231 11.6339 5.12318C11.617 5.03405 11.6255 4.94196 11.6583 4.8574C11.6912 4.77284 11.7471 4.69921 11.8198 4.64487C11.8924 4.59053 11.9788 4.55768 12.0692 4.55005H18.3692C18.4883 4.55547 18.6052 4.58439 18.713 4.63514C18.8209 4.68589 18.9176 4.75748 18.9977 4.84578C19.0778 4.93408 19.1396 5.03734 19.1796 5.14963C19.2196 5.26192 19.237 5.38101 19.2308 5.50005L19.2692 11.7539Z" fill="black"/>
</svg>
