<svg width="30" height="30" viewBox="0 0 30 30" fill="none" xmlns="http://www.w3.org/2000/svg">
<path d="M25.2365 17.576L23.824 15.226C23.5115 14.7135 23.2365 13.726 23.2365 13.126V10.7885C23.2365 6.25098 19.549 2.56348 15.024 2.56348C10.4865 2.57598 6.79903 6.25098 6.79903 10.7885V13.1135C6.79903 13.7135 6.52403 14.701 6.22403 15.2135L4.81153 17.5635C4.27403 18.476 4.14903 19.5135 4.48653 20.4135C4.82403 21.326 5.58653 22.051 6.58653 22.376C7.93653 22.826 9.29903 23.151 10.6865 23.3885C10.824 23.4135 10.9615 23.426 11.099 23.451C11.274 23.476 11.4615 23.501 11.649 23.526C11.974 23.576 12.299 23.6135 12.6365 23.6385C13.424 23.7135 14.224 23.751 15.024 23.751C15.8115 23.751 16.599 23.7135 17.374 23.6385C17.6615 23.6135 17.949 23.5885 18.224 23.551C18.449 23.526 18.674 23.501 18.899 23.4635C19.0365 23.451 19.174 23.426 19.3115 23.401C20.7115 23.176 22.099 22.826 23.449 22.376C24.4115 22.051 25.149 21.326 25.499 20.401C25.849 19.4635 25.749 18.4385 25.2365 17.576ZM15.9365 12.501C15.9365 13.026 15.5115 13.451 14.9865 13.451C14.4615 13.451 14.0365 13.026 14.0365 12.501V8.62598C14.0365 8.10098 14.4615 7.67598 14.9865 7.67598C15.5115 7.67598 15.9365 8.10098 15.9365 8.62598V12.501Z" fill="#292D32"/>
<path d="M18.5371 25.0125C18.0121 26.4625 16.6246 27.5 14.9996 27.5C14.0121 27.5 13.0371 27.1 12.3496 26.3875C11.9496 26.0125 11.6496 25.5125 11.4746 25C11.6371 25.025 11.7996 25.0375 11.9746 25.0625C12.2621 25.1 12.5621 25.1375 12.8621 25.1625C13.5746 25.225 14.2996 25.2625 15.0246 25.2625C15.7371 25.2625 16.4496 25.225 17.1496 25.1625C17.4121 25.1375 17.6746 25.125 17.9246 25.0875C18.1246 25.0625 18.3246 25.0375 18.5371 25.0125Z" fill="#292D32"/>
</svg>
