<svg width="22" height="22" viewBox="0 0 22 22" fill="none" xmlns="http://www.w3.org/2000/svg">
<circle cx="11" cy="11" r="10.5" fill="white" stroke="#D5D5D5"/>
<g clip-path="url(#clip0_1_564)">
<path opacity="0.992" fill-rule="evenodd" clip-rule="evenodd" d="M9.62012 5.98926C10.8662 5.98926 12.1123 5.98926 13.3584 5.98926C13.4953 6.05136 13.5705 6.15878 13.584 6.31152C13.5911 8.2093 13.5983 10.1071 13.6055 12.0049C13.6489 12.1035 13.7241 12.1572 13.8311 12.166C14.4684 12.1732 15.1058 12.1803 15.7432 12.1875C15.8911 12.2542 15.9699 12.3688 15.9795 12.5312C15.9651 12.6026 15.9401 12.6706 15.9043 12.7354C14.4844 14.166 13.0557 15.584 11.6182 16.9893C11.5322 16.9893 11.4463 16.9893 11.3604 16.9893C9.92282 15.584 8.49411 14.166 7.07423 12.7354C6.95459 12.5033 7.0083 12.3206 7.23536 12.1875C7.87989 12.1803 8.52442 12.1732 9.16895 12.166C9.26488 12.1593 9.33292 12.1128 9.37305 12.0264C9.40154 10.094 9.41585 8.1604 9.41602 6.22559C9.45098 6.11563 9.519 6.03685 9.62012 5.98926Z" fill="#2463EB"/>
</g>
<defs>
<clipPath id="clip0_1_564">
<rect width="11" height="11" fill="white" transform="translate(6 6)"/>
</clipPath>
</defs>
</svg>
