<svg width="19" height="19" viewBox="0 0 19 19" fill="none" xmlns="http://www.w3.org/2000/svg">
<g clip-path="url(#clip0_1_584)">
<path opacity="0.997" fill-rule="evenodd" clip-rule="evenodd" d="M3.84082 -0.0185547C7.60122 -0.0185547 11.3617 -0.0185547 15.1221 -0.0185547C15.8797 0.201092 16.356 0.695882 16.5508 1.46582C16.5755 6.95801 16.5755 12.4502 16.5508 17.9424C16.4008 18.482 16.0606 18.8284 15.5303 18.9814C15.32 18.9814 15.1097 18.9814 14.8994 18.9814C14.75 18.925 14.6016 18.857 14.4541 18.7773C13.0134 17.7045 11.5662 16.6407 10.1123 15.5859C9.69174 15.3633 9.27115 15.3633 8.85059 15.5859C7.45279 16.6126 6.05503 17.6393 4.65723 18.666C4.47231 18.8017 4.27441 18.9068 4.06348 18.9814C3.85318 18.9814 3.64291 18.9814 3.43262 18.9814C2.9013 18.8274 2.56114 18.481 2.41211 17.9424C2.38737 12.4502 2.38737 6.95801 2.41211 1.46582C2.60692 0.695882 3.08316 0.201092 3.84082 -0.0185547Z" fill="#A4A4A4"/>
</g>
<defs>
<clipPath id="clip0_1_584">
<rect width="19" height="19" fill="white"/>
</clipPath>
</defs>
</svg>
