<svg width="21" height="20" viewBox="0 0 21 20" fill="none" xmlns="http://www.w3.org/2000/svg">
<path d="M10.96 6.66675C10.4998 6.66675 10.1267 7.03985 10.1267 7.50008C10.1267 7.96031 10.4998 8.33341 10.96 8.33341H14.2933C14.7536 8.33341 15.1267 7.96031 15.1267 7.50008C15.1267 7.03985 14.7536 6.66675 14.2933 6.66675H10.96Z" fill="#F2615A"/>
<path d="M10.96 14.1667C10.4998 14.1667 10.1267 14.5398 10.1267 15.0001C10.1267 15.4603 10.4998 15.8334 10.96 15.8334H14.2933C14.7536 15.8334 15.1267 15.4603 15.1267 15.0001C15.1267 14.5398 14.7536 14.1667 14.2933 14.1667H10.96Z" fill="#F2615A"/>
<path d="M10.96 4.16675C10.4998 4.16675 10.1267 4.53985 10.1267 5.00008C10.1267 5.46031 10.4998 5.83341 10.96 5.83341H17.6267C18.0869 5.83341 18.46 5.46031 18.46 5.00008C18.46 4.53985 18.0869 4.16675 17.6267 4.16675H10.96Z" fill="#F2615A"/>
<path d="M10.96 11.6667C10.4998 11.6667 10.1267 12.0398 10.1267 12.5001C10.1267 12.9603 10.4998 13.3334 10.96 13.3334H17.6267C18.0869 13.3334 18.46 12.9603 18.46 12.5001C18.46 12.0398 18.0869 11.6667 17.6267 11.6667H10.96Z" fill="#F2615A"/>
<path d="M3.37334 3.33496C2.9131 3.33496 2.54001 3.70805 2.54001 4.16829V8.33498C2.54001 8.79523 2.9131 9.16831 3.37334 9.16831H7.54001C8.00024 9.16831 8.37334 8.79523 8.37334 8.33498V4.16829C8.37334 3.70805 8.00024 3.33496 7.54001 3.33496H3.37334Z" fill="#F2615A"/>
<path d="M3.37334 10.8315C2.9131 10.8315 2.54001 11.2046 2.54001 11.6649V15.8315C2.54001 16.2918 2.9131 16.6649 3.37334 16.6649H7.54001C8.00024 16.6649 8.37334 16.2918 8.37334 15.8315V11.6649C8.37334 11.2046 8.00024 10.8315 7.54001 10.8315H3.37334Z" fill="#F2615A"/>
</svg>
