<svg width="21" height="20" viewBox="0 0 21 20" fill="none" xmlns="http://www.w3.org/2000/svg">
<g clip-path="url(#clip0_1_492)">
<path fill-rule="evenodd" clip-rule="evenodd" d="M10.4577 0C4.49973 0 -0.235272 5.127 0.594728 11.125C1.12373 14.947 4.02273 18.156 7.81973 19.168C9.23373 19.545 10.6937 19.625 12.1597 19.372C13.3837 19.16 14.6397 19.255 15.8387 19.555L17.2957 19.919C19.1847 20.392 20.9007 18.711 20.4177 16.859C20.4177 16.859 20.1477 15.823 20.1397 15.79C19.8377 14.63 19.7727 13.405 20.0847 12.248C20.4707 10.822 20.5357 9.26897 20.1887 7.65997C19.2707 3.41497 15.3727 0 10.4577 0ZM10.4577 2C14.4097 2 17.5047 4.71001 18.2337 8.08301C18.5007 9.31901 18.4737 10.544 18.1547 11.726C16.8047 16.718 20.7517 18.722 16.3237 17.614C14.8507 17.246 13.3157 17.142 11.8187 17.401C10.6637 17.601 9.49373 17.544 8.33473 17.236C5.30773 16.429 2.99273 13.863 2.57573 10.851C1.90473 5.99701 5.76873 2 10.4577 2Z" fill="#999999"/>
</g>
<defs>
<clipPath id="clip0_1_492">
<rect width="20" height="20" fill="white" transform="translate(0.5)"/>
</clipPath>
</defs>
</svg>
