<svg width="20" height="20" viewBox="0 0 20 20" fill="none" xmlns="http://www.w3.org/2000/svg">
<path d="M9.14001 15.6407C12.9125 15.0891 15.8333 12.0282 15.8333 8.28157C15.8339 7.74535 15.7735 7.21081 15.6533 6.68823C17.265 7.64823 18.3333 9.32323 18.3333 11.2291C18.3322 12.2752 18.0083 13.2955 17.4058 14.1507C17.4558 14.9416 17.7358 15.6349 18.2475 16.2316C18.2941 16.2854 18.3236 16.3518 18.3322 16.4224C18.3409 16.4931 18.3284 16.5647 18.2962 16.6281C18.264 16.6916 18.2137 16.744 18.1516 16.7788C18.0895 16.8135 18.0184 16.829 17.9475 16.8232C16.8083 16.7307 15.8767 16.4682 15.1525 16.0357C14.3228 16.426 13.4169 16.6272 12.5 16.6249C11.3082 16.6303 10.1406 16.2883 9.14001 15.6407Z" fill="#666666"/>
<path d="M6.35416 13.8808C6.85416 13.9992 7.37749 14.0625 7.91666 14.0625C11.3683 14.0625 14.1667 11.4742 14.1667 8.28083C14.1667 5.08917 11.3683 2.5 7.91666 2.5C4.46499 2.5 1.66666 5.08833 1.66666 8.28167C1.66666 9.90333 2.38832 11.3692 3.55166 12.4192C3.45313 13.1264 3.1505 13.7896 2.68082 14.3275C2.63081 14.3851 2.59911 14.4563 2.58979 14.532C2.58046 14.6077 2.59393 14.6844 2.62846 14.7524C2.663 14.8204 2.71704 14.8766 2.78367 14.9137C2.8503 14.9508 2.92649 14.9672 3.00249 14.9608C4.41916 14.8458 5.53666 14.4858 6.35416 13.8808Z" fill="#666666"/>
</svg>
