<svg width="21" height="20" viewBox="0 0 21 20" fill="none" xmlns="http://www.w3.org/2000/svg">
<g clip-path="url(#clip0_1_488)">
<path d="M9.66668 6.66659C9.66668 6.20635 10.0398 5.83325 10.5 5.83325C10.9603 5.83325 11.3333 6.20635 11.3333 6.66659V9.16658H13.8333C14.2936 9.16658 14.6667 9.53967 14.6667 9.99992C14.6667 10.4602 14.2936 10.8333 13.8333 10.8333H11.3333V13.3333C11.3333 13.7935 10.9603 14.1666 10.5 14.1666C10.0398 14.1666 9.66668 13.7935 9.66668 13.3333V10.8333H7.16668C6.70644 10.8333 6.33334 10.4602 6.33334 9.99992C6.33334 9.53967 6.70644 9.16658 7.16668 9.16658H9.66668V6.66659Z" fill="#999999"/>
<path fill-rule="evenodd" clip-rule="evenodd" d="M20.5 10C20.5 15.5228 16.0228 20 10.5 20C4.97715 20 0.5 15.5228 0.5 10C0.5 4.47715 4.97715 0 10.5 0C16.0228 0 20.5 4.47715 20.5 10ZM2.32439 10C2.32439 14.5153 5.98474 18.1756 10.5 18.1756C15.0153 18.1756 18.6756 14.5153 18.6756 10C18.6756 5.48474 15.0153 1.82439 10.5 1.82439C5.98474 1.82439 2.32439 5.48474 2.32439 10Z" fill="#999999"/>
</g>
<defs>
<clipPath id="clip0_1_488">
<rect width="20" height="20" fill="white" transform="translate(0.5)"/>
</clipPath>
</defs>
</svg>
