<svg width="21" height="20" viewBox="0 0 21 20" fill="none" xmlns="http://www.w3.org/2000/svg">
<g clip-path="url(#clip0_1_499)">
<path fill-rule="evenodd" clip-rule="evenodd" d="M10.5 9.99998C8.2835 9.99998 6.48096 8.20598 6.48096 5.99998C6.48096 3.79398 8.2835 1.99998 10.5 1.99998C12.7165 1.99998 14.519 3.79398 14.519 5.99998C14.519 8.20598 12.7165 9.99998 10.5 9.99998ZM14.2759 10.673C15.8705 9.39596 16.7999 7.33093 16.4582 5.06993C16.0614 2.44693 13.869 0.347977 11.2224 0.0419769C7.57012 -0.381023 4.47144 2.44898 4.47144 5.99998C4.47144 7.88998 5.3516 9.57396 6.72411 10.673C3.35213 11.934 0.890463 14.895 0.504634 18.891C0.448368 19.482 0.911567 20 1.5084 20C2.01982 20 2.45589 19.616 2.5011 19.109C2.90401 14.646 6.33728 12 10.5 12C14.6627 12 18.096 14.646 18.4989 19.109C18.5441 19.616 18.9802 20 19.4916 20C20.0884 20 20.5516 19.482 20.4954 18.891C20.1095 14.895 17.6479 11.934 14.2759 10.673Z" fill="#999999"/>
</g>
<defs>
<clipPath id="clip0_1_499">
<rect width="20" height="20" fill="white" transform="translate(0.5)"/>
</clipPath>
</defs>
</svg>
