<svg width="22" height="22" viewBox="0 0 22 22" fill="none" xmlns="http://www.w3.org/2000/svg">
<circle cx="11" cy="11" r="10.5" fill="white" stroke="#D5D5D5"/>
<g clip-path="url(#clip0_1_554)">
<path opacity="0.992" fill-rule="evenodd" clip-rule="evenodd" d="M12.3799 16.0107C11.1338 16.0107 9.88769 16.0107 8.64159 16.0107C8.50465 15.9486 8.42946 15.8412 8.41601 15.6885C8.40885 13.7907 8.40168 11.8929 8.39452 9.99512C8.35108 9.89646 8.27589 9.84275 8.16894 9.83398C7.53156 9.82683 6.89421 9.81965 6.25683 9.8125C6.10887 9.74579 6.03008 9.63119 6.0205 9.46875C6.03485 9.39742 6.05992 9.32938 6.0957 9.26465C7.51558 7.834 8.94429 6.41604 10.3818 5.01074C10.4678 5.01074 10.5537 5.01074 10.6396 5.01074C12.0772 6.41604 13.5059 7.834 14.9258 9.26465C15.0454 9.49674 14.9917 9.67936 14.7646 9.8125C14.1201 9.81965 13.4756 9.82683 12.831 9.83398C12.7351 9.84071 12.6671 9.88724 12.6269 9.97363C12.5985 11.906 12.5841 13.8396 12.584 15.7744C12.549 15.8844 12.481 15.9632 12.3799 16.0107Z" fill="#FF0000"/>
</g>
<defs>
<clipPath id="clip0_1_554">
<rect width="11" height="11" fill="white" transform="translate(16 16) rotate(-180)"/>
</clipPath>
</defs>
</svg>
