<svg width="17" height="17" viewBox="0 0 17 17" fill="none" xmlns="http://www.w3.org/2000/svg">
<g clip-path="url(#clip0_1_536)">
<path opacity="0.977" fill-rule="evenodd" clip-rule="evenodd" d="M3.46973 -0.0166016C4.76465 -0.0166016 6.05957 -0.0166016 7.35449 -0.0166016C7.92569 0.251815 8.0751 0.67239 7.80273 1.24512C7.65966 1.44134 7.46599 1.55755 7.22168 1.59375C6.00422 1.60482 4.7868 1.61589 3.56934 1.62695C2.5013 1.85384 1.85384 2.5013 1.62695 3.56934C1.60482 6.84539 1.60482 10.1214 1.62695 13.3975C1.85384 14.4655 2.5013 15.113 3.56934 15.3398C6.84539 15.362 10.1214 15.362 13.3975 15.3398C14.4655 15.113 15.113 14.4655 15.3398 13.3975C15.3509 12.18 15.362 10.9626 15.373 9.74512C15.5149 9.17867 15.8746 8.95179 16.4521 9.06445C16.7047 9.17861 16.8818 9.36122 16.9834 9.6123C16.9834 10.9183 16.9834 12.2243 16.9834 13.5303C16.614 15.4823 15.4519 16.6334 13.4971 16.9834C10.1546 16.9834 6.81219 16.9834 3.46973 16.9834C1.51488 16.6334 0.35277 15.4823 -0.0166016 13.5303C-0.0166016 10.1657 -0.0166016 6.8011 -0.0166016 3.43652C0.35277 1.48447 1.51488 0.333426 3.46973 -0.0166016Z" fill="white"/>
<path opacity="0.988" fill-rule="evenodd" clip-rule="evenodd" d="M10.9736 -0.0166016C12.7888 -0.0166016 14.6038 -0.0166016 16.419 -0.0166016C16.6846 0.0940754 16.8727 0.282227 16.9834 0.547852C16.9834 2.36296 16.9834 4.17805 16.9834 5.99316C16.6955 6.55948 16.2639 6.69783 15.6885 6.4082C15.5802 6.32214 15.4972 6.21699 15.4395 6.09277C15.3959 4.97695 15.3738 3.8591 15.3731 2.73926C13.2315 4.88086 11.0899 7.02246 8.94825 9.16406C8.39399 9.43636 7.97895 9.298 7.70314 8.74902C7.62846 8.49143 7.66166 8.24792 7.80274 8.01855C9.94435 5.87695 12.0859 3.73535 14.2275 1.59375C13.1429 1.58268 12.0583 1.57161 10.9736 1.56055C10.39 1.28148 10.2516 0.855372 10.5586 0.282227C10.6681 0.136727 10.8065 0.0371178 10.9736 -0.0166016Z" fill="white"/>
</g>
<defs>
<clipPath id="clip0_1_536">
<rect width="17" height="17" fill="white"/>
</clipPath>
</defs>
</svg>
