<?xml version="1.0" standalone="no"?>
<!DOCTYPE svg PUBLIC "-//W3C//DTD SVG 20010904//EN"
 "http://www.w3.org/TR/2001/REC-SVG-20010904/DTD/svg10.dtd">
<svg version="1.0" xmlns="http://www.w3.org/2000/svg"
 width="512.000000pt" height="512.000000pt" viewBox="0 0 512.000000 512.000000"
 preserveAspectRatio="xMidYMid meet">

<g transform="translate(0.000000,512.000000) scale(0.100000,-0.100000)"
fill="#000000" stroke="none">
<path d="M2745 5015 c-23 -22 -25 -31 -25 -122 l0 -98 -188 -1 c-201 0 -327
-15 -507 -60 -798 -198 -1424 -815 -1629 -1606 -57 -218 -70 -325 -70 -568 -1
-161 4 -243 17 -325 32 -191 92 -415 112 -415 13 0 119 35 134 44 5 3 -2 41
-16 83 -66 207 -99 465 -90 693 13 304 79 563 212 836 298 609 864 1026 1545
1139 109 18 388 31 443 21 l37 -7 0 -90 c0 -82 2 -92 25 -114 14 -15 35 -25
52 -25 18 1 109 49 248 133 316 191 316 183 0 374 -139 84 -230 132 -248 133
-17 0 -38 -10 -52 -25z m295 -295 c0 -3 -36 -26 -80 -52 l-80 -47 0 99 0 99
80 -47 c44 -26 80 -49 80 -52z"/>
<path d="M4180 5026 c-155 -34 -256 -89 -370 -205 -67 -67 -95 -105 -128 -171
-62 -125 -77 -192 -76 -340 1 -107 5 -137 27 -205 38 -115 90 -199 182 -290
93 -93 160 -135 282 -178 80 -28 100 -31 213 -31 148 -1 216 14 338 76 251
125 409 405 389 689 -13 177 -81 323 -212 454 -139 139 -283 203 -475 210 -67
3 -128 -1 -170 -9z m321 -178 c149 -55 254 -147 319 -282 151 -314 -3 -668
-340 -782 -81 -28 -254 -25 -334 4 -179 65 -301 191 -362 372 -14 40 -19 84
-19 160 0 158 50 282 156 390 80 81 180 136 294 161 70 15 213 3 286 -23z"/>
<path d="M4378 4403 l-198 -198 -58 58 -58 57 -57 -58 -57 -57 88 -87 c92 -92
128 -113 165 -99 12 5 125 113 252 240 l230 231 -55 55 -55 55 -197 -197z"/>
<path d="M1840 3427 c-49 -16 -133 -102 -148 -153 -17 -59 -17 -1529 0 -1588
16 -55 99 -138 154 -154 31 -9 215 -12 715 -12 l674 0 222 223 223 222 0 634
c0 461 -3 645 -12 673 -6 22 -31 62 -55 88 -76 84 -26 80 -937 79 -554 -1
-812 -4 -836 -12z m1655 -172 c21 -20 25 -34 25 -80 l0 -55 -840 0 -840 0 0
55 c0 46 4 60 25 80 l24 25 791 0 791 0 24 -25z m25 -735 l0 -440 -175 0
c-238 0 -225 13 -225 -225 l0 -175 -615 0 -616 0 -24 25 -25 24 0 616 0 615
840 0 840 0 0 -440z m-120 -603 c0 -1 -27 -29 -60 -62 l-60 -59 0 62 0 62 60
0 c33 0 60 -1 60 -3z"/>
<path d="M2400 2640 l0 -80 80 0 80 0 0 80 0 80 -80 0 -80 0 0 -80z"/>
<path d="M2800 2640 l0 -80 80 0 80 0 0 80 0 80 -80 0 -80 0 0 -80z"/>
<path d="M3200 2640 l0 -80 80 0 80 0 0 80 0 80 -80 0 -80 0 0 -80z"/>
<path d="M2000 2320 l0 -80 80 0 80 0 0 80 0 80 -80 0 -80 0 0 -80z"/>
<path d="M2400 2320 l0 -80 80 0 80 0 0 80 0 80 -80 0 -80 0 0 -80z"/>
<path d="M2800 2320 l0 -80 80 0 80 0 0 80 0 80 -80 0 -80 0 0 -80z"/>
<path d="M3200 2320 l0 -80 80 0 80 0 0 80 0 80 -80 0 -80 0 0 -80z"/>
<path d="M2000 2000 l0 -80 80 0 80 0 0 80 0 80 -80 0 -80 0 0 -80z"/>
<path d="M2400 2000 l0 -80 80 0 80 0 0 80 0 80 -80 0 -80 0 0 -80z"/>
<path d="M2800 2000 l0 -80 80 0 80 0 0 80 0 80 -80 0 -80 0 0 -80z"/>
<path d="M4615 3288 c-16 -6 -44 -16 -62 -23 l-31 -13 25 -79 c157 -490 112
-1052 -122 -1528 -300 -611 -864 -1027 -1545 -1140 -109 -18 -388 -31 -443
-21 l-37 7 0 90 c0 82 -2 92 -25 114 -14 15 -35 25 -52 25 -18 -1 -109 -49
-248 -133 -316 -191 -316 -183 0 -374 139 -84 230 -132 248 -133 17 0 38 10
52 25 23 22 25 31 25 122 l0 98 188 1 c204 0 316 14 521 64 533 130 1016 476
1323 945 137 208 232 423 293 660 56 217 70 332 69 575 -1 244 -17 371 -79
594 -19 70 -35 130 -35 132 0 7 -34 3 -65 -8z m-2375 -2888 l0 -99 -80 47
c-44 26 -80 49 -80 52 0 4 144 94 158 99 1 1 2 -44 2 -99z"/>
<path d="M660 1506 c-216 -46 -404 -189 -499 -378 -61 -123 -76 -190 -75 -338
1 -107 5 -137 27 -205 38 -115 90 -198 182 -290 131 -131 277 -199 454 -212
434 -30 796 330 767 765 -6 107 -43 228 -97 320 -49 82 -180 211 -262 257
-148 82 -343 113 -497 81z m246 -157 c96 -17 213 -79 286 -152 112 -112 163
-235 163 -397 0 -160 -51 -285 -161 -394 -109 -110 -234 -161 -394 -161 -162
0 -285 51 -397 163 -236 236 -209 632 58 834 131 100 284 136 445 107z"/>
<path d="M720 1156 c0 -40 -2 -44 -30 -49 -42 -9 -107 -77 -121 -129 -23 -88
12 -182 87 -228 27 -18 58 -25 122 -29 66 -5 87 -10 96 -24 21 -33 -4 -52 -72
-55 -53 -3 -63 0 -74 18 -11 17 -23 20 -92 20 l-78 0 6 -31 c11 -55 39 -101
79 -130 22 -16 48 -29 59 -29 15 0 18 -8 18 -45 l0 -45 80 0 80 0 0 44 c0 40
2 44 30 49 16 4 47 24 68 45 92 92 75 245 -34 312 -27 18 -58 25 -122 29 -66
5 -87 10 -96 24 -21 33 4 52 72 55 53 3 63 0 74 -18 11 -17 23 -20 92 -20 l79
0 -7 31 c-11 55 -39 101 -79 130 -22 16 -48 29 -59 29 -15 0 -18 8 -18 45 l0
45 -80 0 -80 0 0 -44z"/>
</g>
</svg>
