<svg width="14" height="14" viewBox="0 0 14 14" fill="none" xmlns="http://www.w3.org/2000/svg">
<path d="M0 2.625V3.5H8.3125V10.0625H5.61914C5.42432 9.31055 4.74756 8.75 3.9375 8.75C3.12744 8.75 2.45068 9.31055 2.25586 10.0625H1.75V7.875H0.875V10.9375H2.25586C2.45068 11.6895 3.12744 12.25 3.9375 12.25C4.74756 12.25 5.42432 11.6895 5.61914 10.9375H9.25586C9.45068 11.6895 10.1274 12.25 10.9375 12.25C11.7476 12.25 12.4243 11.6895 12.6191 10.9375H14V7.36914L13.9727 7.30078L13.0977 4.67578L13.002 4.375H9.1875V2.625H0ZM0.4375 4.375V5.25H4.375V4.375H0.4375ZM9.1875 5.25H12.373L13.125 7.49219V10.0625H12.6191C12.4243 9.31055 11.7476 8.75 10.9375 8.75C10.1274 8.75 9.45068 9.31055 9.25586 10.0625H9.1875V5.25ZM0.875 6.125V7H3.5V6.125H0.875ZM3.9375 9.625C4.42627 9.625 4.8125 10.0112 4.8125 10.5C4.8125 10.9888 4.42627 11.375 3.9375 11.375C3.44873 11.375 3.0625 10.9888 3.0625 10.5C3.0625 10.0112 3.44873 9.625 3.9375 9.625ZM10.9375 9.625C11.4263 9.625 11.8125 10.0112 11.8125 10.5C11.8125 10.9888 11.4263 11.375 10.9375 11.375C10.4487 11.375 10.0625 10.9888 10.0625 10.5C10.0625 10.0112 10.4487 9.625 10.9375 9.625Z" fill="#6E6E6E"/>
</svg>
